<?xml version="1.0" encoding="UTF-8" standalone="no"?>
<svg
   xmlns:dc="http://purl.org/dc/elements/1.1/"
   xmlns:cc="http://creativecommons.org/ns#"
   xmlns:rdf="http://www.w3.org/1999/02/22-rdf-syntax-ns#"
   xmlns:svg="http://www.w3.org/2000/svg"
   xmlns="http://www.w3.org/2000/svg"
   xmlns:sodipodi="http://sodipodi.sourceforge.net/DTD/sodipodi-0.dtd"
   xmlns:inkscape="http://www.inkscape.org/namespaces/inkscape"
   inkscape:version="1.0 (4035a4fb49, 2020-05-01)"
   sodipodi:docname="bgbiba_full.svg"
   id="svg139"
   viewBox="0 0 21000 29700"
   style="shape-rendering:geometricPrecision; text-rendering:geometricPrecision; image-rendering:optimizeQuality; fill-rule:evenodd; clip-rule:evenodd"
   version="1.1"
   height="297mm"
   width="210mm"
   xml:space="preserve"><metadata
   id="metadata143"><rdf:RDF><cc:Work
       rdf:about=""><dc:format>image/svg+xml</dc:format><dc:type
         rdf:resource="http://purl.org/dc/dcmitype/StillImage" /><dc:title></dc:title></cc:Work></rdf:RDF></metadata><sodipodi:namedview
   inkscape:current-layer="_1560048968"
   inkscape:window-maximized="1"
   inkscape:window-y="-8"
   inkscape:window-x="-8"
   inkscape:cy="449.75466"
   inkscape:cx="331.90035"
   inkscape:zoom="1.7959596"
   inkscape:pagecheckerboard="true"
   showborder="false"
   inkscape:showpageshadow="false"
   showgrid="false"
   id="namedview141"
   inkscape:window-height="1369"
   inkscape:window-width="3440"
   inkscape:pageshadow="2"
   inkscape:pageopacity="0"
   guidetolerance="10"
   gridtolerance="10"
   objecttolerance="10"
   borderopacity="1"
   bordercolor="#666666"
   pagecolor="#ffffff"
   inkscape:document-rotation="0" />
 <defs
   id="defs4">
  <style
   id="style2"
   type="text/css">
   <![CDATA[
    .fil3 {fill:black}
    .fil2 {fill:#412774}
    .fil1 {fill:#E2322A}
    .fil4 {fill:#FEFEFE}
    .fil0 {fill:white}
   ]]>
  </style>
 </defs>
 <g
   id="Ebene_x0020_1">
  <metadata
   id="CorelCorpID_0Corel-Layer" />
  <g
   id="_1560048968">
   
   
   
   
   <path
   style="clip-rule:evenodd;fill:#ffffff;fill-rule:evenodd;stroke-width:1;image-rendering:optimizeQuality;shape-rendering:geometricPrecision;text-rendering:geometricPrecision"
   sodipodi:nodetypes="cccccccccccccccccccccccc"
   class="fil0"
   d="m 20047,11962 c 193,-5324.0009 -4056,-9652.0013 -9148.001,-9819.0013 -1487.0002,-49 -2767.0001,229 -3998.0002,731.0001 -858.0001,350 -1684.0005,872.0001 -2395.0004,1457.0002 l -468.0001,418 c -107.0001,98.0001 -202.9999,189.0001 -301,295.9999 l -146,153.0001 c -44,52.0002 -91,103.0002 -141.0001,156.0002 l -273,324.9999 C 1923.998,7191.9993 1154.998,9201 1073.998,11271 c -56,1443 235,2831 734,4009 211,499.001 532.0001,1114.001 830.0001,1548.001 368.0001,537 461.0001,638 841.0001,1089 l 211.0001,228 c 162.0001,180 416.9999,421 606,587 627.0001,553 1362.0001,1044 2134.0003,1421 2444.0002,1190 5280.0004,1259 7792.0014,213 926.806,-437.511 1800.572,-892.521 2557,-1595 l 159,-139 c 34,-36 44,-44 77,-72 63,-53 516,-509 588,-596 l 343,-403 c 440,-534 845,-1184 1151,-1807 C 19638,14651 19996,13372 20047,11962 Z"
   id="path7" /><path
   id="path15"
   d="m 20047,11962 c -51,1410 -409,2689 -950,3792 -306,623 -711,1273 -1151,1807 l -343,403 c -72,87 -525,543 -588,596 -33,28 -43,36 -77,72 l -159,139 c -216,205 -792,623 -1014,768 -462,304 -974,590 -1543,827 -2512,1046 -5348,977 -7792,-213 -772,-377 -1507,-868 -2134,-1421 -189,-166 -444,-407 -606,-587 l -211,-228 c -380,-451 -473,-552 -841,-1089 -298,-434 -619,-1049 -830,-1548 -499,-1178 -790,-2566 -734,-4009 81,-2070 850,-4079 2103,-5592 l 273,-325 c 50,-53 97,-104 141,-156 l 146,-153 c 98,-107 194,-198 301,-296 l 468,-418 c 711,-585 1537,-1107 2395,-1457 1231,-502 2511,-780 3998,-731 5092,167 9341,4495 9148,9819 z M 10349,1973 c -2233,71 -4111,790 -5763,2078 -185,145 -329,282 -491,413 -28,23 -48,49 -76,73 -30,26 -57,47 -83,75 l -304,301 c -27,29 -46,49 -72,78 -26,28 -49,45 -74,74 l -212,237 c -23,24 -44,50 -69,80 -597,705 -1136,1541 -1512,2420 -816,1910 -1035,4067 -501,6164 168,660 378,1200 639,1774 332,728 912,1593 1430,2185 l 290,315 c 589,615 951,906 1633,1386 232,163 486,306 746,456 245,140 540,283 813,398 1953,830 4042,1020 6171,500 968,-237 2108,-735 2931,-1291 242,-164 473,-323 697,-505 l 650,-561 c 130,-139 403,-390 521,-532 26,-30 44,-48 71,-78 693,-781 1204,-1598 1647,-2583 526,-1170 815,-2594 787,-4039 -36,-1884 -627,-3573 -1582,-5050 -147,-228 -339,-486 -505,-697 l -562,-650 c -112,-105 -193,-201 -304,-301 -27,-26 -45,-51 -73,-76 -27,-26 -52,-44 -80,-69 l -482,-422 c -188,-158 -487,-375 -697,-515 -470,-312 -983,-606 -1559,-853 -1171,-503 -2582,-831 -4025,-785 z"
   class="fil3" />
   <path
   id="path17"
   d="m 12552,18004 c -44,7 -119,35 -168,49 -58,17 -114,33 -171,48 -118,32 -236,61 -356,84 -830,199 -1883,172 -2714,0 -1116,-230 -2204,-776 -3003,-1480 -822,-724 -1424,-1521 -1871,-2622 -643,-1582 -605,-3464 54,-5012 208,-486 505,-1016 817,-1420 217,-282 447,-556 705,-796 67,-63 114,-117 193,-184 l 409,-337 c 146,-112 526,-375 681,-454 60,-44 314,-176 395,-216 134,-67 273,-132 416,-190 199,-81 720,-277 919,-303 50,-25 263,-65 331,-78 1746,-355 3481,18 4946,948 356,226 620,448 921,721 l 313,309 c 96,110 182,195 288,327 569,708 1020,1487 1276,2401 550,1968 190,3829 -721,5317 -283,463 -782,1097 -1208,1459 l -326,279 c -502,414 -1190,804 -1827,1043 -88,33 -214,68 -299,107 z M 10168,4805 c -1451,76 -2689,560 -3774,1361 -83,61 -168,126 -241,189 l -452,408 c -38,36 -69,68 -106,105 l -209,221 c -31,35 -68,82 -98,113 -151,158 -432,551 -553,737 -214,330 -424,715 -588,1122 -357,883 -553,1846 -502,2910 174,3661 3301,6686 7176,6513 994,-44 1945,-317 2719,-705 397,-199 1094,-632 1414,-938 37,-35 83,-68 118,-101 l 584,-592 c 140,-138 500,-630 603,-792 219,-346 416,-705 589,-1122 568,-1364 670,-2922 270,-4392 -251,-921 -721,-1817 -1318,-2535 -279,-336 -420,-466 -737,-763 l -348,-293 c -526,-402 -1004,-686 -1626,-945 -853,-355 -1888,-555 -2921,-501 z"
   class="fil3" />
   <path
   id="path19"
   d="m 17545,13298 893,540 -1048,9 -66,243 1716,476 70,-243 c -46,-26 -924,-265 -993,-268 100,-16 322,2 435,4 148,3 298,9 447,9 32,-17 44,-95 45,-131 -61,-40 -125,-75 -189,-110 -64,-36 -130,-75 -196,-112 -134,-75 -260,-150 -387,-223 73,23 919,275 990,278 l 70,-241 -1716,-477 z"
   class="fil3" />
   <path
   id="path21"
   d="m 11701,4521 253,58 119,-501 c 41,-168 78,-334 113,-505 l 14,896 130,31 c 9,-12 8,-11 16,-24 l 403,-760 c -7,39 -23,72 -33,111 -12,42 -20,83 -31,127 -25,107 -176,704 -179,758 l 245,56 419,-1729 -249,-56 c -38,80 -86,154 -127,229 l -254,448 c -39,70 -87,164 -131,230 l -46,-1038 -243,-62 z"
   class="fil3" />
   <path
   id="path23"
   d="m 14304,5504 c 47,44 164,112 200,148 38,-24 414,-571 471,-654 l 154,-225 -282,1119 c 58,35 137,105 196,129 20,-42 92,-135 125,-180 201,-273 436,-617 636,-900 l 258,-368 -24,-22 c -11,-10 -16,-12 -25,-19 l -155,-106 c -32,24 -264,364 -309,427 -70,96 -254,351 -303,440 l 272,-1105 c -35,-33 -147,-106 -187,-131 -29,18 -1019,1426 -1027,1447 z"
   class="fil3" />
   <path
   id="path25"
   d="m 14165,17861 c 9,38 220,406 255,470 80,144 182,348 267,462 l -885,-728 -200,108 c 11,48 570,1035 643,1167 37,68 69,125 107,191 33,58 84,142 108,197 37,-11 195,-101 227,-124 -35,-75 -86,-161 -129,-235 -98,-170 -327,-616 -408,-716 l 784,657 c 32,26 85,78 116,93 l 200,-107 -858,-1553 z"
   class="fil3" />
   <path
   id="path27"
   d="m 5721,19271 220,129 c 2,-3 5,-8 6,-7 l 399,-691 c 43,-77 85,-160 130,-238 l -174,1142 200,112 886,-1541 c -34,-24 -190,-114 -230,-127 -19,52 -92,168 -125,225 l -390,685 163,-1120 -207,-112 z"
   class="fil3" />
   <path
   id="path29"
   d="m 5827,5114 c 121,-64 126,-138 325,-113 l 286,413 -277,189 c -31,-30 -134,-190 -168,-239 -35,-51 -151,-205 -166,-250 z m -418,-602 c 24,-24 243,-174 269,-184 l 222,314 c 29,41 23,39 5,87 -45,119 -20,83 -120,153 -33,23 -53,44 -93,55 -29,-74 -265,-372 -283,-425 z m -350,-33 c 94,151 387,566 502,729 87,122 165,242 251,364 88,124 167,250 254,367 44,-17 136,-91 182,-121 l 365,-249 c 224,-147 135,-175 -118,-549 -163,-242 -139,-228 -398,-222 19,-75 82,-142 60,-229 -14,-56 -187,-295 -231,-357 -190,-268 -137,-234 -692,145 -55,37 -131,82 -175,122 z"
   class="fil3" />
   <path
   id="path31"
   d="m 1786,10506 c 39,-7 390,30 424,43 24,19 12,9 28,37 75,136 54,76 32,299 l -520,-54 z m 702,394 c 30,-307 20,-161 116,-318 l 509,57 -35,331 c -13,1 -497,-41 -560,-57 -3,-1 -5,-2 -7,-3 z m -983,171 1768,192 78,-718 c 8,-93 -20,-145 -103,-163 -133,-27 -340,-37 -481,-53 -258,-28 -228,37 -349,164 -94,-168 -55,-198 -285,-223 -83,-9 -402,-54 -461,-42 -122,26 -110,259 -124,384 -8,78 -55,409 -43,459 z"
   class="fil3" />
   <path
   id="path33"
   d="m 8355,19544 c 33,-1 162,30 193,43 26,11 68,69 116,113 l -125,495 -331,-81 z m 180,-720 321,79 c -9,62 -32,137 -48,199 -15,57 -31,147 -49,196 -18,46 -151,77 -164,76 -26,-2 -166,-40 -187,-48 z m -641,1442 c 148,29 304,75 452,112 75,19 148,38 224,57 244,61 214,-122 314,-510 20,-78 55,-162 23,-241 -24,-62 -96,-102 -129,-157 203,-64 212,-52 266,-268 19,-79 107,-383 99,-441 -12,-83 -83,-94 -160,-113 -139,-35 -576,-155 -653,-161 z"
   class="fil3" />
   <path
   id="path35"
   d="m 1956,13717 c 42,-27 492,-141 571,-156 54,166 68,187 5,343 -35,23 -434,127 -494,131 z m 1283,-342 c 20,33 79,266 88,318 -64,15 -129,34 -194,51 -181,47 -197,83 -276,13 -22,-20 -52,-37 -65,-59 -10,-19 -47,-166 -50,-194 z m -1569,137 175,669 c 56,203 127,156 375,88 386,-104 459,-66 517,-344 154,91 76,178 371,100 562,-149 522,-66 398,-540 -19,-71 -94,-385 -118,-425 z"
   class="fil3" />
   <path
   id="path37"
   d="m 4079,17626 c 39,-72 179,-173 236,-235 l 714,-685 167,170 c 83,118 -52,209 -145,294 -30,28 -53,57 -82,84 l -339,320 c -58,54 -108,108 -165,160 -226,209 -243,-37 -386,-108 z m -350,-50 c 28,57 217,230 274,291 111,120 298,344 543,158 l 860,-824 c 46,-45 85,-109 91,-193 14,-175 -131,-289 -201,-364 l -284,-289 -322,305 c -109,101 -212,204 -320,303 -27,25 -46,51 -73,76 z"
   class="fil3" />
   <path
   id="path39"
   d="m 2889,16473 c 42,71 104,141 145,210 60,-22 1214,-858 1276,-883 20,18 181,248 189,269 l -458,321 c -48,-53 -106,-167 -153,-206 -27,12 -77,50 -105,70 -38,27 -58,66 -83,101 -113,161 -362,492 -448,629 l 154,225 c 55,-40 426,-618 486,-680 10,-11 4,-6 14,-12 49,51 90,157 193,143 53,-8 342,-222 404,-266 392,-271 353,-212 125,-547 -46,-68 -91,-127 -138,-195 -36,-52 -105,-160 -145,-201 -41,16 -303,209 -367,252 -323,216 -673,480 -1001,701 l -76,55 c -10,9 -6,5 -12,14 z"
   class="fil3" />
   <path
   id="path41"
   d="m 10400,3467 -461,32 c -9,35 3,186 13,222 59,8 144,-21 195,-2 7,87 42,431 30,490 l -341,25 -93,-1310 c 36,-16 308,-32 346,-26 l 22,305 c 34,2 233,-6 268,-25 -4,-102 -14,-206 -22,-307 -19,-266 -60,-223 -420,-197 -102,7 -207,14 -310,21 -215,16 -155,164 -133,477 14,207 29,414 43,620 7,103 27,546 52,608 39,95 150,70 252,63 105,-8 207,-15 312,-22 334,-23 315,-13 291,-351 -15,-208 -29,-415 -44,-623 z"
   class="fil3" />
   <path
   id="path43"
   d="m 16912,14980 c 17,18 594,345 634,359 -12,47 -138,251 -172,316 l -638,-356 c -18,15 -119,196 -132,226 24,26 1039,595 1157,659 128,70 262,160 387,218 25,-22 121,-196 133,-232 l -690,-388 c 12,-37 65,-123 86,-158 21,-36 63,-120 89,-147 1,-1 3,-3 5,-5 l 693,391 129,-231 -1551,-882 z"
   class="fil3" />
   <path
   id="path45"
   d="m 16667,7867 121,233 350,-184 c 57,-31 318,-175 363,-187 l 162,310 c -17,17 -654,360 -701,377 l 124,237 1570,-835 -121,-235 -650,343 -170,-315 644,-346 -122,-233 z"
   class="fil3" />
   
   
   
   <path
   id="path53"
   d="m 2967,6723 c 17,40 296,408 347,478 31,43 99,123 116,163 l -620,-387 c -31,29 -121,175 -143,220 l 1501,950 144,-220 -329,-211 c -111,-70 -220,-137 -329,-208 l 839,132 c 34,-40 134,-202 156,-247 -170,-32 -354,-54 -526,-79 l -389,-58 c -76,-11 -73,2 -108,-51 -36,-54 -464,-689 -501,-722 -2,2 -5,2 -5,5 l -76,111 c -27,45 -53,81 -77,124 z"
   class="fil3" />
   <path
   id="path55"
   d="m 12476,20184 c -24,18 -278,71 -319,69 l -74,-347 -257,54 c -2,62 64,316 80,393 43,205 122,162 303,123 606,-127 585,-77 517,-399 -94,-447 -32,-354 -398,-575 -104,-63 -205,-124 -306,-185 -91,-55 -71,-33 -96,-150 -14,-64 -33,-138 -43,-202 29,-21 116,-32 153,-40 52,-11 110,-30 162,-29 l 72,321 c 67,-10 206,-32 257,-59 -10,-106 -58,-295 -84,-403 -41,-168 -157,-113 -329,-76 -627,136 -554,39 -435,612 35,168 75,162 227,256 l 453,275 c 63,37 50,46 74,163 14,66 31,134 43,199 z"
   class="fil3" />
   <path
   id="path57"
   d="m 3726,8538 -124,300 -338,-140 -101,242 354,155 c 200,86 210,20 281,-146 228,-532 293,-540 34,-652 -447,-193 -351,-205 -741,-36 -121,52 -234,101 -355,154 -91,39 -84,19 -177,-20 -51,-23 -144,-53 -180,-83 l 122,-292 307,127 c 25,-30 92,-195 106,-239 -43,-34 -277,-123 -346,-154 -192,-84 -207,28 -269,170 -232,526 -276,531 -16,641 419,179 306,189 728,10 117,-50 233,-99 350,-150 65,-29 71,-10 183,38 55,24 129,62 182,75 z"
   class="fil3" />
   <path
   id="path59"
   d="m 11111,20040 21,353 c -50,2 -287,32 -327,2 l -20,-343 -260,14 c -12,46 13,361 19,429 14,190 145,147 312,138 590,-33 559,25 536,-369 -23,-382 11,-303 -199,-487 l -377,-316 c -71,-60 -67,-35 -74,-154 -3,-58 -18,-173 -7,-224 l 321,-17 18,332 265,-13 c 4,-115 -13,-267 -20,-386 -10,-170 -75,-169 -235,-160 -132,8 -263,16 -395,23 -154,9 -239,3 -229,182 6,127 10,266 22,391 12,115 85,150 180,232 79,68 152,124 224,189 39,33 74,60 110,92 32,29 81,70 115,92 z"
   class="fil3" />
   <path
   id="path61"
   d="m 15787,6409 c -30,-18 -206,-183 -232,-221 l 62,-65 c 40,-42 167,-167 179,-198 l -183,-177 -255,256 c -124,132 -158,164 -6,304 l 389,374 c 120,85 208,-52 310,-161 248,-264 245,-168 229,-517 -8,-161 -14,-324 -23,-485 -4,-74 8,-65 93,-155 l 129,-128 c 25,17 218,206 229,224 -69,86 -146,153 -226,235 17,31 145,144 181,186 48,-22 210,-205 253,-250 48,-51 154,-132 52,-238 l -454,-432 c -78,-55 -136,-6 -177,39 l -247,253 c -129,137 -97,138 -85,400 7,148 27,340 22,483 -1,63 -54,79 -113,143 -40,42 -84,94 -127,130 z"
   class="fil3" />
   <path
   id="path63"
   d="m 17007,7294 c -25,-42 -125,-174 -158,-204 -49,29 -103,73 -148,108 -51,38 -101,80 -149,110 l -204,-269 27,-27 c 203,-166 540,-397 761,-572 l 266,-197 c 39,52 183,231 202,270 -48,50 -204,150 -272,210 9,32 133,192 158,211 33,-16 79,-56 112,-81 270,-205 377,-232 240,-411 l -333,-439 c -112,-137 -200,-28 -363,96 -149,113 -297,223 -445,335 -72,55 -625,449 -646,513 -26,84 65,174 126,252 57,74 108,144 166,220 189,247 174,249 439,48 l 210,-158 c 10,-12 3,-2 11,-15 z"
   class="fil3" />
   <path
   id="path65"
   d="m 17402,16457 -162,203 c 35,34 252,205 289,222 -18,57 -159,199 -202,277 -54,-24 -709,-541 -789,-603 -41,-31 -84,-66 -129,-99 -27,-20 -113,-82 -131,-107 28,-56 166,-199 199,-267 59,22 220,175 291,212 31,-45 141,-173 155,-209 l -326,-256 c -34,-26 -79,-61 -138,-46 -71,19 -296,339 -357,415 -187,230 -175,228 97,432 l 876,678 c 149,117 243,226 354,85 l 342,-438 c 29,-37 66,-76 53,-140 -14,-66 -225,-210 -307,-274 -32,-24 -82,-67 -115,-85 z"
   class="fil3" />
   <path
   id="path67"
   d="m 16235,17818 c -38,-38 -426,-619 -445,-652 l 630,473 c -17,30 -170,171 -185,179 z m -840,-872 240,381 c 81,130 160,251 243,381 32,51 460,734 489,762 l 191,-172 c -31,-67 -171,-236 -190,-290 46,-33 73,-70 117,-110 27,-25 99,-94 127,-109 64,44 225,180 275,202 66,-75 154,-131 182,-185 l -738,-526 c -46,-34 -702,-512 -738,-525 -20,15 -27,29 -46,47 -55,53 -92,75 -152,144 z"
   class="fil3" />
   <path
   id="path69"
   d="m 2585,9571 c -40,-19 -322,-132 -352,-167 l 776,76 c -7,52 -45,210 -68,246 z m -820,-144 1637,789 69,-254 -311,-138 82,-318 339,30 c 16,-33 68,-224 65,-254 L 1834,9157 Z"
   class="fil3" />
   <path
   id="path71"
   d="m 9799,19264 58,785 -255,-24 z m -608,1291 261,24 89,-327 332,29 21,338 259,28 -166,-1804 -280,-27 z"
   class="fil3" />
   <path
   id="path73"
   d="m 7240,4582 -229,111 -227,-751 c 35,33 193,264 233,320 40,56 74,102 114,158 29,42 90,117 109,162 z m -772,-974 475,1747 236,-112 -98,-328 297,-145 c 53,54 160,241 205,275 l 228,-112 c -16,-39 -504,-671 -542,-721 l -409,-540 c -47,-61 -97,-123 -139,-185 z"
   class="fil3" />
   <path
   id="path75"
   d="m 18591,8799 c -35,13 -128,71 -169,94 -79,44 -483,274 -530,289 l -85,-241 z m -1435,2 c 5,51 63,188 83,245 l 339,-59 111,307 c -19,19 -265,153 -298,165 l 87,249 1564,-921 -93,-264 z"
   class="fil3" />
   <path
   id="path77"
   d="m 10714,4424 c 46,13 701,65 734,58 l 19,-227 -471,-41 46,-553 402,30 19,-230 -402,-33 43,-512 c 97,-4 404,46 466,28 l 18,-229 -732,-59 c -8,157 -151,1688 -142,1768 z"
   class="fil3" />
   <path
   id="path79"
   d="m 12976,4862 678,287 c 27,-36 82,-169 90,-216 l -430,-182 c 14,-51 197,-485 218,-510 l 371,151 88,-214 -370,-154 197,-475 433,177 88,-214 c -21,-18 -622,-269 -679,-284 z"
   class="fil3" />
   <path
   id="path81"
   d="m 12674,18536 c 22,99 621,1653 630,1662 l 685,-256 -79,-220 -439,162 c -20,-21 -185,-463 -198,-516 l 371,-143 -78,-216 -375,138 -186,-482 434,-164 -80,-219 z"
   class="fil3" />
   <path
   id="path83"
   d="m 3384,6147 c 46,24 124,96 172,137 l 340,283 c 62,53 112,92 172,143 l 680,563 358,-420 c 34,-43 94,-103 116,-148 -54,-30 -132,-125 -187,-142 l -217,265 c -29,32 -45,58 -78,89 -36,-17 -391,-315 -425,-352 18,-34 147,-183 186,-229 19,-21 49,-55 63,-78 l -176,-147 c -84,97 -169,206 -254,303 -18,-9 -378,-301 -397,-331 14,-26 49,-62 72,-89 48,-56 200,-232 220,-272 -50,-30 -139,-128 -187,-142 -18,35 -299,366 -345,419 -28,31 -103,114 -113,148 z"
   class="fil3" />
   <path
   id="path85"
   d="m 4714,18532 c 20,37 381,303 431,343 48,38 102,74 146,114 29,-19 123,-144 145,-182 -26,-32 -311,-242 -364,-290 20,-41 54,-75 82,-112 44,-59 233,-309 263,-326 l 313,242 139,-181 c -57,-49 -288,-217 -311,-246 10,-25 55,-76 73,-99 31,-38 49,-65 81,-104 55,-68 102,-135 160,-200 47,18 298,238 368,276 l 142,-180 -572,-446 c -35,27 -105,127 -137,169 -220,289 -469,588 -686,876 z"
   class="fil3" />
   <path
   id="path87"
   d="m 2293,15376 329,652 208,-100 c -26,-114 -167,-299 -205,-421 35,-36 419,-217 491,-251 32,27 154,296 187,353 45,-19 170,-79 204,-104 l -179,-356 466,-236 206,413 211,-100 -328,-653 -1198,600 c -63,32 -360,173 -392,203 z"
   class="fil3" />
   <polygon
   id="polygon89"
   points="19069,9767 19164,10214 19393,10170 19244,9460 17500,9828 17553,10084 18323,9925 18408,10305 18633,10261 18553,9877 "
   class="fil3" />
   <path
   id="path91"
   d="m 4137,5284 c 12,22 134,156 155,170 77,-49 149,-152 219,-189 l 457,493 c 100,116 298,309 394,421 35,41 169,196 205,212 55,-67 128,-111 183,-177 -13,-30 -38,-43 -62,-71 -23,-27 -41,-50 -66,-74 l -847,-917 c -31,-32 -43,-38 -67,-72 l 209,-199 c -12,-23 -111,-118 -147,-170 -34,15 -268,231 -320,284 -39,41 -292,259 -313,289 z"
   class="fil3" />
   <path
   id="path93"
   d="m 19201,10433 23,293 -1535,145 c -8,41 14,214 22,264 l 1537,-145 29,287 234,-18 -79,-848 z"
   class="fil3" />
   <path
   id="path95"
   d="m 8370,2907 369,1735 c 52,1 596,-120 684,-141 l -47,-228 -423,84 -324,-1503 z"
   class="fil3" />
   <polygon
   id="polygon97"
   points="8591,4681 8519,4458 8110,4589 7618,3133 7365,3214 7928,4896 "
   class="fil3" />
   <path
   id="path99"
   d="m 17123,14542 c 37,30 332,143 405,173 l 1234,511 c 27,-27 89,-190 104,-236 -30,-31 -710,-302 -813,-345 -139,-57 -270,-112 -408,-170 l -418,-171 c -27,30 -91,191 -104,238 z"
   class="fil3" />
   <path
   id="path101"
   d="m 13872,5267 c 1,1 4,1 5,4 l 224,124 430,-771 c 70,-132 145,-256 216,-389 34,-63 71,-128 107,-192 28,-49 93,-153 107,-198 l -225,-128 c -46,62 -187,323 -219,384 -69,130 -621,1103 -645,1166 z"
   class="fil3" />
   <path
   id="path103"
   d="m 2044,14760 c 11,45 74,216 98,246 l 1657,-639 -92,-246 z"
   class="fil3" />
   
   
   
   
   
   
   
   
   
   <path
   id="path123"
   d="m 15130,18412 c 19,34 113,160 140,184 55,-27 159,-115 214,-154 37,-28 72,-52 106,-78 38,-28 77,-53 110,-84 -8,-30 -116,-171 -141,-190 -74,65 -390,273 -429,322 z"
   class="fil3" />
   <polygon
   id="polygon125"
   points="7706,19351 7206,19149 7112,19370 7618,19571 "
   class="fil3" />
   
   
   
   
   
  <path
   style="clip-rule:evenodd;opacity:1;fill:#e2322a;fill-rule:evenodd;stroke-width:1;image-rendering:optimizeQuality;shape-rendering:geometricPrecision;text-rendering:geometricPrecision"
   class="fil1"
   d="m 6720.9999,14001.001 210.0001,639 669,1 c -5.9999,10 -475.0001,369 -536.9999,401 l 203,641 c -48,-27 -95,-64 -139.0002,-97 l -404,-291 c -64,28 -483,360 -549,384 l 201,-640 c -54,-25 -507,-371 -536,-398 l 671.0001,-2 z m 1511.0003,-2583 c 22.0001,29 140,407 166.0001,492 11.9999,39 23.9998,129 61.9998,148 l 655.0001,3 c -30.9999,32 -93,71 -132.0001,100 l -404.9998,302 199.9999,635 c -46,-23 -337.0001,-241 -408,-291 -36,-26 -100,-79 -138,-94 -70.0001,47 -495,362 -545.0002,386 l 202.0002,-639 c -38,-32 -93,-68 -135,-99 -59.0002,-44 -375,-272 -400.0003,-303 l 670.0002,-2 z M 5683.9998,9458.0009 c 7,9 5,5 13,19 l 98.0001,297 c 36,101 79,218 104,320.0001 H 6567 c -20.0001,31 -222.0001,172 -263.0001,203 l -267,200 c 2,54 76,258 97,325 29,89 83,226 98,314 -47,-20 -474,-352 -545.0001,-387 -72,38 -474,353 -546,387 l 201,-631 c -31,-48 -505.0001,-365 -534.0001,-411 h 670.0001 z m 6173.0012,8727.0001 c -36,-39 -89,-66 -131,-98.999 -60.001,-47.001 -63.001,-50.001 -108,-112 -197,-274.001 -92.001,-569.001 -125,-718.001 -68,-311 -165,-732 -324,-992 l -170.001,-268 c -123,-205 -146,-799 -208.999,-1107 -46.001,-223 -127.001,-472 -200.001,-678 -195,-552 -264,-509 -433,-883 -22,-48 -41,-108 -61,-159 -33,-84 -49,-55 -123.9996,-94 -13,-112 -203.0002,-1695 -206,-1806 -2.0003,-63 9,-53 -9.0001,-120 -17.9999,-71 -38,-145 -70,-203 -132.0001,-242 -127,-356 -171,-629 -49,-307 -146,-544.0001 -242.0001,-818.0001 -43,-124.001 -79,-328 -68.9999,-468 8,-134.0005 23.9999,-120.0006 -43,-210.0005 -160.0002,-217.0001 -333.0001,-353.0001 -381,-418.0001 -76,-100 -108,-249 -157.0001,-378 -83,-221.0001 -33.0001,-168.0001 -194.0002,-341.0001 -53.9998,-57 -59.9998,-114 -53.9998,-215 5.9999,-84 9,-169 9,-254 -1.0001,-464.0001 127.9999,-583.0001 189.0001,-873.0001 -40.0002,27 -133.0002,206 -360.0003,302 -186.9998,78 -358.9999,80 -551.9999,18 -81.9999,-26 -165,-71 -217.0002,-117 -127.9998,-114 -208.9999,-216 -269,-389.0001 -38,-109 -42.9998,-153 -47.9999,-276 -155.0001,79 -534.9999,342.0001 -681.0001,454.0001 l -409,337 c -79,67 -126,121 -193,184 -258.0001,240 -488.0001,514.0001 -705.0001,796.0001 -312.0001,404.0001 -609.0001,934.0001 -817.0002,1420.0007 -659,1548.0001 -697,3430.0001 -54,5012.0001 447.0001,1101 1049.0002,1898 1871.0003,2622 799,704 1887.0003,1250.001 3003.0004,1480 831.0001,172.001 1884.0007,199 2714.0007,0 z"
   id="path9" /><path
   style="clip-rule:evenodd;fill:#412774;fill-rule:evenodd;stroke-width:1;image-rendering:optimizeQuality;shape-rendering:geometricPrecision;text-rendering:geometricPrecision"
   id="path11"
   d="m 8857.9989,5171 c 47,60 83,86 154,123 176,93 137,130 179,384 60,373 -63,860 13,1329 14,89 17,170 1.0002,260 -40,225 -45,222 133,378 258,227 186,201.001 380,453.001 72,93.999 318.9999,133 413.9999,131 5,-87 8,-125 53,-185.001 66,-91 -58,-68.999 62,-155.999 -47,-130.001 -23,-47 10,-147.001 -31,-30.999 -57,-43 -50,-104.999 47,-29.001 99,-52.001 153,-83.001 103,-60 -37,-83 149,-308 94,-116 118,-352 399,-197 123,68 178,90 289,177 26,21 102,96 117,120 39,61 55,80 78,159 111,384.001 -299,619.001 -394,974 148,174.001 355,59 697.001,267.001 195.999,120 19.999,77.999 381,189 275.999,84 280.999,170 509,264 139.999,57 155,40 251.999,134 61,59 112,128 161,216 282.001,499 212.001,641 416.001,1119 76.999,179 38.999,99 139.999,246 50.001,72 129.001,133 201.001,186 32,24 82.999,57 86,109 1,27 -22.001,40 -27,166 -2.001,60 19.999,131 15,175 -7,55 -52.001,62 -97,88 -1,90 8,197 -3,287 -7,54 -51,66 -83,30 -20,-23 -23,-71 -32.001,-109 -21.999,-91 -42,-132 -81,-209 -19,-38 -35.999,-58 -55,-93 -19,-34 -29.999,-54 -63.999,-68 -44.001,115 -26.001,244 -114.001,256 -82,11 -48,-69 -44.999,-164 2,-54 -16.001,-100 -28,-151 -86.001,-348 11,-285 -65,-461 -181.001,-419 -332.001,-464 -477.001,-761 -36,-74 -209,-435 -241,-473 -158,10 -314,11 -458,-39 -66,-22 -340,-110 -393,-92 -19,14 -5,-5 -21,26 l -22,91 c -54,277 -20,708 86,948 85,193 148,227 233,382 73,132 127,281 193,421 80,171 172,295 220,394 78,161 237,459 303,619 48,115 89,153 65,215 -19.999,52 -79,181 -79,232 1,198 94,559 94,825 0,204 -4,395 19,595 55.001,467 3.001,639 -180.999,1000 -49,96 -164,329 -170,441 -10,194 -6,397 27,585 70,390 217,440 75,722 -19,37 -33,64 -55,95 -25,34 -40.001,40.001 -83,66 137,314 278,363.001 254.999,757.001 85.001,-39.001 211,-74 299.001,-107.001 637,-239 1325,-629 1827,-1043 l 326,-279 c 426,-362 925,-996 1208,-1459 911,-1488 1271,-3349 721,-5317 -256,-914 -707,-1693 -1276,-2401.001 -106,-132 -192,-217 -288,-327 l -313,-309 c -301,-273 -565,-495 -921,-721 -1465.001,-930 -3200.001,-1303 -4946.0011,-948 -68,13 -281,53 -331,78 z"
   class="fil2" /></g>
 </g>
</svg>
