<?xml version="1.0" encoding="UTF-8" standalone="no"?>
<svg
   xmlns:dc="http://purl.org/dc/elements/1.1/"
   xmlns:cc="http://creativecommons.org/ns#"
   xmlns:rdf="http://www.w3.org/1999/02/22-rdf-syntax-ns#"
   xmlns:svg="http://www.w3.org/2000/svg"
   xmlns="http://www.w3.org/2000/svg"
   xmlns:sodipodi="http://sodipodi.sourceforge.net/DTD/sodipodi-0.dtd"
   xmlns:inkscape="http://www.inkscape.org/namespaces/inkscape"
   sodipodi:docname="Dribbling_champ.svg"
   inkscape:version="1.0 (4035a4fb49, 2020-05-01)"
   id="svg855"
   version="1.1"
   viewBox="0 0 97.47789 109.07253"
   height="109.07253mm"
   width="97.47789mm">
  <defs
     id="defs849" />
  <sodipodi:namedview
     inkscape:window-maximized="0"
     inkscape:window-y="0"
     inkscape:window-x="586"
     inkscape:window-height="1360"
     inkscape:window-width="1718"
     showgrid="false"
     inkscape:document-rotation="0"
     inkscape:current-layer="layer1"
     inkscape:document-units="mm"
     inkscape:cy="434.20718"
     inkscape:cx="670.90223"
     inkscape:zoom="0.49497475"
     inkscape:pageshadow="2"
     inkscape:pageopacity="0.0"
     borderopacity="1.0"
     bordercolor="#666666"
     pagecolor="#ffffff"
     id="base"
     fit-margin-top="0"
     fit-margin-left="0"
     fit-margin-right="0"
     fit-margin-bottom="0"
     showborder="false" />
  <metadata
     id="metadata852">
    <rdf:RDF>
      <cc:Work
         rdf:about="">
        <dc:format>image/svg+xml</dc:format>
        <dc:type
           rdf:resource="http://purl.org/dc/dcmitype/StillImage" />
        <dc:title />
      </cc:Work>
    </rdf:RDF>
  </metadata>
  <g
     id="layer1"
     inkscape:groupmode="layer"
     inkscape:label="Ebene 1"
     transform="translate(-1.0896763,-1.5131879)">
    <path
       d="M 49.828881,2.5131879 C 39.804514,2.5132729 35.906061,12.156423 28.643612,19.066183 15.495487,31.575791 2.0897003,43.698661 2.0896773,61.847038 2.0898623,88.212508 23.463409,109.58583 49.828881,109.58572 76.194156,109.58554 97.567386,88.212308 97.567566,61.847038 97.567546,43.698661 84.161806,31.575738 71.013636,19.066183 63.751296,12.156584 59.853056,2.5135109 49.828881,2.5131879 Z m -0.08371,7.385595 a 9.4483776,9.4483784 0 0 1 0.08371,0 9.4483776,9.4483784 0 0 1 9.448515,9.4480041 9.4483776,9.4483784 0 0 1 -9.448515,9.448517 9.4483776,9.4483784 0 0 1 -9.448517,-9.448517 9.4483776,9.4483784 0 0 1 9.364803,-9.4480041 z"
       style="fill:#000000;fill-opacity:1;stroke:none;stroke-width:2;stroke-miterlimit:4;stroke-dasharray:none;stroke-dashoffset:0;stroke-opacity:1"
       id="path1418" />
    <path
       id="path1418-6"
       style="fill:none;stroke:#ffcc00;stroke-width:2;stroke-miterlimit:4;stroke-dasharray:none;stroke-dashoffset:0;stroke-opacity:1"
       d="M 49.82888,2.5131879 C 39.804515,2.5132729 35.906062,12.156422 28.643612,19.066183 15.495487,31.575792 2.0896993,43.698662 2.0896763,61.847028 2.0898613,88.212508 23.463408,109.58583 49.82888,109.58572 76.194146,109.58554 97.567376,88.212308 97.567566,61.847028 97.567536,43.698662 84.161806,31.575739 71.013626,19.066183 63.751296,12.156584 59.853056,2.5135109 49.82888,2.5131879 Z m -0.08371,7.385595 a 9.4483777,9.4483785 0 0 1 0.08371,0 9.4483777,9.4483785 0 0 1 9.448516,9.4480041 9.4483777,9.4483785 0 0 1 -9.448516,9.448517 9.4483777,9.4483785 0 0 1 -9.448516,-9.448517 9.4483777,9.4483785 0 0 1 9.364803,-9.4480041 z" />
    <path
       sodipodi:nodetypes="sssssssssssssssscsssscssssssscccssscccsccsssssssscsssscssssccsccssssscccssssccsccssssscscssssscsssscsssssscsssssss"
       style="fill:#ffcc00;fill-opacity:1;stroke-width:0.18314"
       d="m 26.605319,97.771833 c -0.538318,-0.260088 -1.012637,-1.291408 -0.864807,-1.880394 0.185464,-0.738961 1.033479,-1.303035 2.863273,-1.904585 3.569287,-1.173403 7.218777,-1.905491 11.373313,-2.281486 1.311383,-0.118681 2.411692,-0.298199 2.445125,-0.398926 0.03343,-0.100733 -0.371848,-0.75927 -0.900642,-1.463435 -1.093069,-1.455573 -3.401308,-3.387361 -5.482524,-4.588393 -0.774235,-0.446798 -1.536558,-0.996322 -1.694044,-1.221178 -0.411406,-0.587353 -0.362593,-1.533063 0.103149,-1.998805 0.330186,-0.330186 0.53555,-0.374437 1.348409,-0.290544 1.129491,0.116577 2.180053,0.620549 4.428148,2.124277 2.449666,1.638551 3.843392,3.215128 5.132439,5.805784 1.268413,2.549168 1.404669,3.572021 0.585027,4.391664 -0.445497,0.445496 -0.672498,0.496254 -3.296525,0.737168 -5.403574,0.496102 -9.527716,1.275847 -13.016522,2.461018 -2.304411,0.782818 -2.415901,0.801549 -3.023819,0.507835 z m 43.62805,-0.350176 c -2.694312,-1.139874 -6.550882,-1.94233 -12.224927,-2.543678 -1.904627,-0.201862 -3.621332,-0.451775 -3.814901,-0.555374 -0.444597,-0.237938 -0.905155,-1.115627 -0.905155,-1.72497 0,-0.575198 1.356715,-3.35606 2.34199,-4.800391 1.780241,-2.609689 6.447345,-6.110726 8.135498,-6.10287 0.705086,0.0035 0.929353,0.127196 1.216077,0.67193 0.577205,1.096606 -0.189486,2.239242 -2.372848,3.536357 -0.709959,0.421775 -1.864756,1.308275 -2.566222,1.970003 -1.241238,1.170919 -3.204984,3.47814 -3.068208,3.604865 0.03745,0.03468 1.79877,0.283235 3.914035,0.5523 5.464922,0.695161 9.7141,1.603209 11.343611,2.424139 1.582145,0.79707 1.990596,1.907658 1.09365,2.973621 -0.61306,0.728572 -1.359836,0.727146 -3.0926,-0.0062 z m -21.22724,-4.238033 c -0.439274,-0.396303 -0.46685,-0.555658 -0.720965,-4.166441 -0.145324,-2.064902 -0.22325,-4.023778 -0.17317,-4.353043 0.200761,-1.31996 1.830383,-1.768246 2.822261,-0.776367 l 0.54794,0.547932 -0.05842,4.138307 -0.05842,4.138304 -0.513849,0.441689 c -0.642305,0.552107 -1.2554,0.561949 -1.845438,0.02963 z M 47.244757,79.104776 C 37.150628,77.940309 29.912013,70.296358 28.715767,59.538224 c -0.709551,-6.381145 1.875672,-13.459063 6.558586,-17.956312 1.769374,-1.699228 2.923237,-2.523487 4.972343,-3.552003 5.689169,-2.85558 12.453043,-3.038061 18.3515,-0.495105 5.413375,2.333836 9.907987,7.55387 11.634757,13.512589 1.371701,4.733464 0.865638,11.549321 -1.181945,15.918744 -4.043052,8.627648 -12.316869,13.233342 -21.806251,12.138639 z m 8.056817,-4.298689 c 2.570833,-0.860011 6.446397,-3.141967 6.957215,-4.096447 0.459991,-0.859499 0.781995,-4.116659 0.688155,-6.960793 -0.09151,-2.773165 -0.737418,-6.964352 -1.073293,-6.964352 -0.07799,0 -0.640553,0.415068 -1.250139,0.922377 l -1.108352,0.922376 v 1.516381 c 0,3.405938 -1.221095,7.047974 -3.386474,10.100476 -1.013967,1.429373 -3.210279,3.507337 -4.639542,4.389525 -0.622051,0.383954 -1.131,0.780645 -1.131,0.88153 0,0.37497 2.97702,-0.05323 4.94343,-0.711073 z M 46.367974,73.927 c 3.831147,-1.575646 7.394994,-5.085827 9.056685,-8.920303 0.623657,-1.439147 1.150852,-3.448321 1.157075,-4.409723 l 0.0035,-0.491312 -1.78562,0.730136 c -3.555685,1.453904 -7.572289,2.483396 -11.40048,2.922047 -2.75757,0.315975 -8.234516,0.05344 -9.897764,-0.474471 -0.486743,-0.154489 -0.458267,0.06216 0.223354,1.69947 1.303181,3.13038 4.523545,6.887159 6.958239,8.117259 2.666915,1.347433 3.961748,1.535755 5.685334,0.826897 z M 66.837481,62.419473 c 0.531659,-2.250525 0.769618,-5.287723 0.565092,-7.21261 -0.18507,-1.741721 -0.559437,-3.064816 -0.839931,-2.96845 -0.09468,0.03253 -0.577039,0.59408 -1.071909,1.247896 -0.885552,1.169978 -0.896412,1.200351 -0.687532,1.92297 0.970732,3.358267 0.977142,3.40182 0.982174,6.674859 l 0.0048,3.193535 0.344728,-0.671945 c 0.189596,-0.369563 0.505709,-1.353378 0.702462,-2.186255 z M 45.321787,60.186509 c 2.393419,-0.427839 5.35119,-1.294342 7.966599,-2.333877 1.259096,-0.500449 2.348545,-0.967708 2.421002,-1.038352 0.216626,-0.211213 -0.659374,-1.891074 -1.481446,-2.840909 -3.674416,-4.245453 -10.376291,-7.130787 -16.958667,-7.301168 l -2.008877,-0.05198 -0.591526,0.983538 c -1.480546,2.461717 -2.435524,6.250731 -2.439207,9.67794 -0.0021,1.988208 0.03516,2.257135 0.335412,2.417818 0.285484,0.152793 2.131877,0.50247 4.33226,0.820473 1.190251,0.172015 6.849919,-0.05198 8.42445,-0.333466 z m 14.380435,-5.71561 c 0.469149,-0.310458 0.72833,-0.620266 0.727783,-0.869916 -0.0014,-0.568172 -2.027634,-4.649453 -3.222253,-6.489866 -1.406282,-2.1665 -2.748337,-3.823242 -4.81119,-5.939331 -1.975208,-2.026181 -1.798445,-1.96837 -4.920789,-1.609348 -2.575879,0.296193 -7.067037,2.02697 -8.73286,3.365432 l -0.535245,0.430054 1.709985,0.129092 c 3.296172,0.248826 6.470381,1.156584 9.792717,2.800513 3.874118,1.916955 6.912999,4.602018 8.233823,7.275156 0.377857,0.764724 0.764047,1.390403 0.858204,1.390403 0.09416,0 0.499079,-0.216979 0.899825,-0.482189 z m 4.618742,-4.566758 c 0.477551,-0.698164 0.869016,-1.394882 0.869915,-1.54827 0.0028,-0.429029 -1.259386,-2.463108 -2.343214,-3.77708 -0.535578,-0.64931 -1.48389,-1.559705 -2.107361,-2.023101 -1.070753,-0.795845 -4.225359,-2.436964 -4.684395,-2.436964 -0.116556,0 0.374236,0.721117 1.090647,1.602481 1.838903,2.262306 3.819594,5.298694 4.958575,7.601472 0.535889,1.083454 1.058315,1.943126 1.160945,1.910385 0.10263,-0.03274 0.577329,-0.630752 1.054888,-1.328923 z"
       id="path2579" />
  </g>
</svg>
