<?xml version="1.0" encoding="UTF-8" standalone="no"?>
<svg
   xmlns:dc="http://purl.org/dc/elements/1.1/"
   xmlns:cc="http://creativecommons.org/ns#"
   xmlns:rdf="http://www.w3.org/1999/02/22-rdf-syntax-ns#"
   xmlns:svg="http://www.w3.org/2000/svg"
   xmlns="http://www.w3.org/2000/svg"
   xmlns:sodipodi="http://sodipodi.sourceforge.net/DTD/sodipodi-0.dtd"
   xmlns:inkscape="http://www.inkscape.org/namespaces/inkscape"
   sodipodi:docname="Layup.svg"
   inkscape:version="1.0 (4035a4fb49, 2020-05-01)"
   id="svg855"
   version="1.1"
   viewBox="0 0 97.47789 109.07253"
   height="109.07253mm"
   width="97.47789mm">
  <defs
     id="defs849" />
  <sodipodi:namedview
     inkscape:window-maximized="0"
     inkscape:window-y="0"
     inkscape:window-x="1160"
     inkscape:window-height="1360"
     inkscape:window-width="1718"
     showgrid="false"
     inkscape:document-rotation="0"
     inkscape:current-layer="layer1"
     inkscape:document-units="mm"
     inkscape:cy="604.53494"
     inkscape:cx="174.48922"
     inkscape:zoom="0.49497475"
     inkscape:pageshadow="2"
     inkscape:pageopacity="0.0"
     borderopacity="1.0"
     bordercolor="#666666"
     pagecolor="#ffffff"
     id="base"
     fit-margin-top="0"
     fit-margin-left="0"
     fit-margin-right="0"
     fit-margin-bottom="0"
     showborder="false" />
  <metadata
     id="metadata852">
    <rdf:RDF>
      <cc:Work
         rdf:about="">
        <dc:format>image/svg+xml</dc:format>
        <dc:type
           rdf:resource="http://purl.org/dc/dcmitype/StillImage" />
        <dc:title></dc:title>
      </cc:Work>
    </rdf:RDF>
  </metadata>
  <g
     id="layer1"
     inkscape:groupmode="layer"
     inkscape:label="Ebene 1"
     transform="translate(-1.0896763,-1.5131879)">
    <path
       d="M 49.828881,2.5131879 C 39.804514,2.5132729 35.906061,12.156423 28.643612,19.066183 15.495487,31.575791 2.0897003,43.698661 2.0896773,61.847038 2.0898623,88.212508 23.463409,109.58583 49.828881,109.58572 76.194156,109.58554 97.567386,88.212308 97.567566,61.847038 97.567546,43.698661 84.161806,31.575738 71.013636,19.066183 63.751296,12.156584 59.853056,2.5135109 49.828881,2.5131879 Z m -0.08371,7.385595 a 9.4483776,9.4483784 0 0 1 0.08371,0 9.4483776,9.4483784 0 0 1 9.448515,9.4480041 9.4483776,9.4483784 0 0 1 -9.448515,9.448517 9.4483776,9.4483784 0 0 1 -9.448517,-9.448517 9.4483776,9.4483784 0 0 1 9.364803,-9.4480041 z"
       style="fill:#ffffff;fill-opacity:1;stroke:#000000;stroke-width:2;stroke-miterlimit:4;stroke-dasharray:none;stroke-dashoffset:0;stroke-opacity:1"
       id="path1418" />
    <path
       id="path1418-6"
       style="fill:none;stroke:#000000;stroke-width:2;stroke-miterlimit:4;stroke-dasharray:none;stroke-dashoffset:0;stroke-opacity:1"
       d="M 49.82888,2.5131879 C 39.804515,2.5132729 35.906062,12.156422 28.643612,19.066183 15.495487,31.575792 2.0896993,43.698662 2.0896763,61.847028 2.0898613,88.212508 23.463408,109.58583 49.82888,109.58572 76.194146,109.58554 97.567376,88.212308 97.567566,61.847028 97.567536,43.698662 84.161806,31.575739 71.013626,19.066183 63.751296,12.156584 59.853056,2.5135109 49.82888,2.5131879 Z m -0.08371,7.385595 a 9.4483777,9.4483785 0 0 1 0.08371,0 9.4483777,9.4483785 0 0 1 9.448516,9.4480041 9.4483777,9.4483785 0 0 1 -9.448516,9.448517 9.4483777,9.4483785 0 0 1 -9.448516,-9.448517 9.4483777,9.4483785 0 0 1 9.364803,-9.4480041 z" />
    <path
       sodipodi:nodetypes="cssscsssssssssscssssssssssscsssssccsccsssssssssscssssssscscssssssssssssssssscsssssscsssssssssccsscscssssscsccsscssscccccsssssscccsssssssscssssssscsscssssss"
       style="fill:#000000;stroke-width:0.199928"
       d="m 37.866277,102.07355 c -4.695486,-0.73002 -9.049265,-2.542454 -12.671127,-5.274864 -2.020013,-1.523932 -5.308427,-4.932366 -6.50577,-6.74321 -2.129949,-3.221295 -3.671794,-7.005432 -4.464926,-10.958249 -0.511089,-2.547181 -0.507416,-8.133711 0.0068,-10.496259 1.157907,-5.318844 3.642454,-9.798255 7.404751,-13.350108 3.564493,-3.365112 8.077235,-5.874754 13.411278,-7.45834 3.262233,-0.968499 6.892869,-2.369419 9.333362,-3.60137 0.633322,-0.319702 1.339909,-0.581273 1.570189,-0.581273 1.10774,0 1.648284,0.965084 1.454932,2.59762 -0.198694,1.677663 0.587886,2.063341 2.115592,1.037314 1.034391,-0.694708 1.932548,-1.935848 3.281464,-4.534617 1.442109,-2.778286 3.523962,-4.903338 5.946804,-6.070207 2.554466,-1.230259 4.43869,-1.667432 7.147608,-1.658379 2.306232,0.0077 3.637746,0.267283 3.637746,0.709179 0,0.135841 -0.277741,0.511233 -0.617204,0.834192 -1.684479,1.602629 -3.497227,4.61634 -3.709864,6.167684 -0.163859,1.19553 0.164563,1.362344 2.143075,1.088517 3.063554,-0.424003 7.344459,-2.144004 9.121035,-3.664685 0.434514,-0.371932 1.454011,-1.63772 2.265548,-2.81287 1.526794,-2.210887 2.019046,-2.627892 2.854545,-2.418187 0.80043,0.200893 1.094343,1.165153 1.367671,4.48702 0.49776,6.04945 -0.595389,11.04524 -3.289556,15.033571 -0.964071,1.427163 -1.534554,2.022891 -4.574992,4.777442 -3.658828,3.314787 -4.789419,4.778597 -5.076258,6.572398 -0.08155,0.510011 -0.04511,0.846326 0.101467,0.936928 0.125776,0.07774 1.192597,-0.158242 2.370702,-0.524393 1.870502,-0.581348 2.416442,-0.665769 4.307037,-0.666032 2.442918,-3.99e-4 2.733233,0.156018 2.733233,1.472046 0,0.577049 -0.158177,0.835634 -0.924437,1.511235 -4.529133,3.993285 -5.479012,5.503858 -7.678541,12.211004 -1.605614,4.896097 -3.127585,7.852559 -5.672659,11.019282 -4.453893,5.541767 -11.278897,9.287931 -19.050797,10.456751 -1.934134,0.29089 -6.152775,0.24072 -8.338823,-0.0991 z m 0.479935,-4.397544 c 0,-0.063 -0.50426,-0.75902 -1.120579,-1.546708 -2.088933,-2.669748 -3.023996,-5.249369 -2.803924,-7.735385 0.06325,-0.714744 0.169671,-1.489396 0.236431,-1.72145 0.101965,-0.354417 -0.203946,-0.666332 -1.912236,-1.949784 -1.118492,-0.840327 -2.108338,-1.481693 -2.199656,-1.425255 -0.247766,0.153127 -0.950727,2.428962 -1.172808,3.796953 -0.502566,3.095703 -0.468222,4.406769 0.196639,7.506896 0.193269,0.901183 0.256924,0.969814 1.340642,1.445402 1.25496,0.550756 3.299116,1.235651 4.536523,1.519981 0.905592,0.20808 2.898968,0.28327 2.898968,0.10935 z m 7.0112,-1.607129 c 2.02079,-0.599575 5.123349,-2.469319 6.564196,-3.955901 l 0.671058,-0.692349 -0.675531,-0.103292 c -0.371532,-0.05681 -1.48404,-0.155192 -2.472231,-0.218626 -3.017277,-0.193681 -8.341021,-1.585486 -10.668622,-2.789135 -0.579422,-0.299632 -0.626581,-0.295615 -0.822269,0.07003 -0.387875,0.724748 -0.239898,2.269263 0.328023,3.423832 0.644542,1.310339 2.819791,3.526755 4.067241,4.144211 1.06689,0.528096 1.568678,0.548319 3.008135,0.121234 z m 9.838497,-0.900533 c 2.353496,-1.178659 5.024942,-3.356581 6.84703,-5.582122 1.544876,-1.886943 3.780985,-6.090677 4.515969,-8.489707 1.624233,-5.301633 2.920556,-8.336369 4.167734,-9.756823 0.673325,-0.766879 0.620279,-0.939365 -0.288902,-0.939365 -1.123049,0 -2.698634,-0.597785 -3.511729,-1.332363 -1.326851,-1.198731 -1.465238,-2.673369 -0.480282,-5.117672 0.963542,-2.391162 1.866278,-3.557161 5.726627,-7.396692 4.927065,-4.900482 6.013632,-6.573476 6.653913,-10.24515 0.264563,-1.517098 0.413076,-3.698219 0.251808,-3.698219 -0.02948,0 -0.62266,0.528228 -1.318185,1.173842 -0.695517,0.645616 -1.818499,1.503044 -2.495496,1.905398 -2.775958,1.649825 -7.932071,2.586822 -10.427628,1.894969 -1.195741,-0.331497 -2.758216,-1.45599 -3.257533,-2.344406 -0.59606,-1.060551 -0.579345,-2.694033 0.04632,-4.529125 0.262448,-0.769729 0.446136,-1.430911 0.408196,-1.469312 -0.03793,-0.03838 -0.536147,0.184458 -1.107128,0.495229 -1.602599,0.872246 -3.517706,2.927123 -4.986715,5.350683 -2.522881,4.162218 -3.131591,4.993901 -4.160934,5.685142 -1.879177,1.261927 -4.041717,1.715097 -5.230309,1.096043 -0.821944,-0.428091 -1.979427,-1.884723 -2.141466,-2.694925 -0.06317,-0.315696 -0.185025,-0.617392 -0.270843,-0.670438 -0.08583,-0.05304 -0.591527,0.09249 -1.123774,0.323383 -0.532247,0.230899 -2.823427,1.03173 -5.091515,1.779621 -4.928621,1.625192 -7.127311,2.647372 -10.4001,4.835036 -2.79744,1.869921 -5.692296,4.620209 -6.734629,6.398297 -1.127393,1.923201 -2.055609,4.288388 -2.163869,5.513788 l -0.101384,1.147548 0.865777,-1.546537 c 1.292532,-2.308872 2.410889,-3.743492 4.474408,-5.739756 4.91793,-4.757651 10.315325,-6.836641 17.035901,-6.561944 2.141647,0.08754 2.840754,0.202608 4.39104,0.722751 7.346514,2.464863 13.484508,8.558162 15.638502,15.524631 0.527004,1.704436 1.008283,4.764761 1.009878,6.421512 0.0038,3.919869 -2.14643,10.316351 -4.75141,14.134615 -0.43641,0.63967 -1.441044,1.876729 -2.232512,2.749021 -0.791476,0.872291 -1.3404,1.585979 -1.219839,1.585979 0.120554,0 0.778925,-0.280323 1.463048,-0.622932 z M 25.994605,90.543148 c -0.08961,-2.466578 0.265848,-4.68528 1.280614,-7.993348 l 0.538172,-1.75439 -1.181294,-1.08999 c -0.649711,-0.599492 -1.226277,-1.091552 -1.281257,-1.093466 -0.05501,-0.002 -0.726294,1.09405 -1.491814,2.435474 -0.76552,1.341424 -1.8303,3.018224 -2.366182,3.726222 -1.123277,1.484052 -1.136152,1.370655 0.418947,3.688493 1.053695,1.57051 3.552924,4.330203 3.921508,4.330203 0.181195,0 0.222233,-0.572284 0.161306,-2.249198 z m 29.412504,-3.398789 c 0.659647,-0.879835 1.242681,-2.072671 1.524344,-3.118683 0.306569,-1.13852 0.767704,-4.068171 0.838182,-5.32506 l 0.05584,-0.996396 -1.592549,0.05798 c -5.940653,0.21628 -12.035992,2.445254 -15.587557,5.700127 l -1.199573,1.099365 1.099609,0.491042 c 1.727059,0.771243 4.65855,1.694575 6.766526,2.131258 2.51886,0.521799 2.732735,0.544909 5.368968,0.580181 l 2.239026,0.02995 z M 37.918907,81.359073 c 3.637564,-3.938692 11.715896,-7.156251 17.974861,-7.159296 l 1.653219,-8.32e-4 -0.131465,-0.549804 c -0.73092,-3.056644 -2.552298,-6.512638 -4.478074,-8.496971 -1.090723,-1.123892 -1.140029,-1.149525 -2.205461,-1.146636 -3.618741,0.0098 -8.426136,2.502867 -12.597437,6.53287 -2.353097,2.273378 -4.101487,4.581959 -5.41946,7.155848 -0.86512,1.689507 -0.865786,1.692494 -0.466606,2.082881 0.364368,0.356339 4.101079,2.989963 4.270924,3.010135 0.03989,0.0048 0.669653,-0.637965 1.399499,-1.428223 z m -17.96614,-0.01937 c 0,-0.14115 0.674759,-1.285214 1.499469,-2.542364 0.824701,-1.257149 1.49946,-2.365774 1.49946,-2.463611 0,-0.09784 -0.258154,-0.505721 -0.573685,-0.906407 -0.315523,-0.400688 -0.86305,-1.200855 -1.216718,-1.778149 -0.353668,-0.577295 -0.711409,-1.049626 -0.794975,-1.049626 -0.509638,0 -1.250721,6.569119 -0.932469,8.265545 0.128344,0.68414 0.518918,1.041365 0.518918,0.474609 z m 9.684714,-5.31803 c 1.870775,-3.69179 5.857125,-8.289684 9.608406,-11.082418 2.213031,-1.647545 5.661362,-3.429886 7.284468,-3.765139 0.66688,-0.137737 1.21251,-0.311685 1.21251,-0.386546 0,-0.207989 -2.758941,-1.5097 -3.998578,-1.886581 -1.845528,-0.56109 -5.489931,-0.614159 -8.230813,-0.119852 -3.165593,0.570898 -3.318247,0.639896 -3.459808,1.563736 -0.564619,3.684804 -1.260295,6.069272 -3.394273,11.633953 l -1.333689,3.477814 0.752537,0.770671 c 0.4139,0.423868 0.822737,0.77067 0.908525,0.77067 0.0858,0 0.378618,-0.439338 0.650715,-0.976308 z m -3.273763,-7.020844 c 1.681525,-4.518623 2.471422,-6.979013 2.296099,-7.151993 -0.158608,-0.156493 -0.669252,0.398326 -3.086381,3.353346 -2.75041,3.362479 -2.844735,3.695202 -1.708297,6.026086 0.617151,1.265812 0.817273,1.525557 1.019436,1.323185 0.13835,-0.138491 0.803967,-1.736271 1.479143,-3.550624 z"
       id="path2579-7" />
  </g>
</svg>
