<?xml version="1.0" encoding="UTF-8" standalone="no"?>
<svg
   xmlns:dc="http://purl.org/dc/elements/1.1/"
   xmlns:cc="http://creativecommons.org/ns#"
   xmlns:rdf="http://www.w3.org/1999/02/22-rdf-syntax-ns#"
   xmlns:svg="http://www.w3.org/2000/svg"
   xmlns="http://www.w3.org/2000/svg"
   xmlns:sodipodi="http://sodipodi.sourceforge.net/DTD/sodipodi-0.dtd"
   xmlns:inkscape="http://www.inkscape.org/namespaces/inkscape"
   width="97.47789mm"
   height="109.07253mm"
   viewBox="0 0 97.47789 109.07253"
   version="1.1"
   id="svg855"
   inkscape:version="1.0 (4035a4fb49, 2020-05-01)"
   sodipodi:docname="Pass_champ.svg">
  <defs
     id="defs849" />
  <sodipodi:namedview
     showborder="false"
     fit-margin-bottom="0"
     fit-margin-right="0"
     fit-margin-left="0"
     fit-margin-top="0"
     id="base"
     pagecolor="#ffffff"
     bordercolor="#666666"
     borderopacity="1.0"
     inkscape:pageopacity="0.0"
     inkscape:pageshadow="2"
     inkscape:zoom="0.49497475"
     inkscape:cx="174.48922"
     inkscape:cy="604.53494"
     inkscape:document-units="mm"
     inkscape:current-layer="layer1"
     inkscape:document-rotation="0"
     showgrid="false"
     inkscape:window-width="1718"
     inkscape:window-height="1360"
     inkscape:window-x="660"
     inkscape:window-y="0"
     inkscape:window-maximized="0" />
  <metadata
     id="metadata852">
    <rdf:RDF>
      <cc:Work
         rdf:about="">
        <dc:format>image/svg+xml</dc:format>
        <dc:type
           rdf:resource="http://purl.org/dc/dcmitype/StillImage" />
        <dc:title></dc:title>
      </cc:Work>
    </rdf:RDF>
  </metadata>
  <g
     transform="translate(-1.0896763,-1.5131879)"
     inkscape:label="Ebene 1"
     inkscape:groupmode="layer"
     id="layer1">
    <path
       id="path1418"
       style="fill:none;fill-opacity:1;stroke:#ffcc00;stroke-width:2;stroke-miterlimit:4;stroke-dasharray:none;stroke-dashoffset:0;stroke-opacity:1"
       d="M 49.828881,2.5131879 C 39.804514,2.5132729 35.906061,12.156423 28.643612,19.066183 15.495487,31.575791 2.0897003,43.698661 2.0896773,61.847038 2.0898623,88.212508 23.463409,109.58583 49.828881,109.58572 76.194156,109.58554 97.567386,88.212308 97.567566,61.847038 97.567546,43.698661 84.161806,31.575738 71.013636,19.066183 63.751296,12.156584 59.853056,2.5135109 49.828881,2.5131879 Z m -0.08371,7.385595 a 9.4483776,9.4483784 0 0 1 0.08371,0 9.4483776,9.4483784 0 0 1 9.448515,9.4480041 9.4483776,9.4483784 0 0 1 -9.448515,9.448517 9.4483776,9.4483784 0 0 1 -9.448517,-9.448517 9.4483776,9.4483784 0 0 1 9.364803,-9.4480041 z" />
    <path
       d="M 49.82888,2.5131879 C 39.804515,2.5132729 35.906062,12.156422 28.643612,19.066183 15.495487,31.575792 2.0896993,43.698662 2.0896763,61.847028 2.0898613,88.212508 23.463408,109.58583 49.82888,109.58572 76.194146,109.58554 97.567376,88.212308 97.567566,61.847028 97.567536,43.698662 84.161806,31.575739 71.013626,19.066183 63.751296,12.156584 59.853056,2.5135109 49.82888,2.5131879 Z m -0.08371,7.385595 a 9.4483777,9.4483785 0 0 1 0.08371,0 9.4483777,9.4483785 0 0 1 9.448516,9.4480041 9.4483777,9.4483785 0 0 1 -9.448516,9.448517 9.4483777,9.4483785 0 0 1 -9.448516,-9.448517 9.4483777,9.4483785 0 0 1 9.364803,-9.4480041 z"
       style="fill:#000000;fill-opacity:1;stroke:none;stroke-width:2;stroke-miterlimit:4;stroke-dasharray:none;stroke-dashoffset:0;stroke-opacity:1"
       id="path1418-6" />
    <path
       id="path2579"
       d="m 33.787817,97.470978 c -8.997222,-1.51918 -16.062827,-6.661476 -20.006484,-14.56059 -1.87245,-3.750511 -2.48786,-6.39317 -2.644717,-11.356764 -0.09051,-2.864168 -0.03576,-4.060974 0.257339,-5.623245 1.803315,-9.612791 8.91131,-17.647167 18.314252,-20.701138 10.554909,-3.42812 22.275011,0.532989 29.429846,9.94655 1.544793,2.032482 3.626275,6.324108 4.299344,8.864469 0.86824,3.276988 1.11857,6.193047 0.793429,9.242309 -0.519679,4.873523 -1.938894,8.86482 -4.461127,12.54607 -1.504036,2.195183 -4.880773,5.57192 -7.075956,7.075956 -5.503976,3.771073 -12.956107,5.571003 -18.905926,4.566383 z m 6.801799,-4.280565 C 40.795814,93.059735 40.392911,92.799688 39.266498,92.336426 38.37573,91.970078 37.398832,91.597264 37.095611,91.507958 36.21476,91.248519 33.1774,89.693808 32.172656,88.988093 28.608482,86.484672 26.224887,82.415863 25.875034,78.238021 l -0.136179,-1.626147 -1.71271,-0.743587 c -2.01573,-0.87515 -1.954204,-0.918956 -2.372834,1.689506 -0.33616,2.094526 -0.171518,6.83842 0.296728,8.550121 0.272316,0.995485 0.541207,1.398004 1.500269,2.245866 2.256884,1.995236 5.751606,3.773531 9.014392,4.587004 1.767677,0.440717 7.543419,0.618169 8.124916,0.249629 z m 8.981387,-3.561948 c 1.332935,-0.645265 3.726981,-2.724021 5.33335,-4.630977 1.802232,-2.139458 3.618449,-5.762491 4.362637,-8.702687 0.65294,-2.579683 0.928424,-4.741177 0.604275,-4.741177 -0.121669,0 -1.271235,0.491558 -2.554596,1.092349 -11.2096,5.247629 -19.053214,6.806165 -27.121005,5.388975 l -0.83566,-0.146788 0.448277,1.13728 c 1.190655,3.020717 2.569773,4.939016 4.704413,6.543659 2.410699,1.812158 5.34326,3.091119 9.088245,3.96361 2.840631,0.661792 4.737927,0.69223 5.970064,0.09576 z M 17.990488,78.444861 c 0.07985,-1.061245 0.302796,-2.795383 0.495484,-3.853643 l 0.350336,-1.924092 -1.620679,-1.753016 -1.620671,-1.753007 -0.06759,1.80269 c -0.127311,3.397082 1.251023,9.410619 2.156961,9.410619 0.08855,0 0.226301,-0.868299 0.30613,-1.929551 z m 23.736033,-4.45871 c 2.968709,-0.603275 4.793877,-1.145774 7.938704,-2.359674 3.486204,-1.345663 9.684786,-4.400051 9.860904,-4.859012 0.311422,-0.811548 -1.748582,-5.685996 -3.504148,-8.291633 -0.962346,-1.428333 -3.825605,-4.430571 -4.868272,-5.104573 -0.575837,-0.37224 -0.664876,-0.373048 -1.764151,-0.016 -1.730912,0.562177 -4.896367,2.21336 -6.929592,3.614647 -4.822873,3.323921 -8.448798,7.327461 -10.711683,11.827235 -0.737203,1.465939 -1.709292,4.22975 -1.709292,4.859804 0,1.029223 7.239314,1.233145 11.68753,0.329216 z M 26.452863,71.139344 c 0.379675,-1.498585 1.80149,-4.789209 2.739224,-6.339611 3.225073,-5.332175 8.620891,-10.417571 13.833565,-13.037735 1.266783,-0.636746 2.435427,-1.157725 2.596994,-1.157725 0.161557,0 0.293752,-0.08774 0.293752,-0.194971 0,-0.323591 -2.875594,-1.28522 -4.748761,-1.588041 -2.495537,-0.403428 -6.91955,-0.352795 -8.791967,0.100615 -1.56072,0.377932 -3.403675,1.251498 -3.966643,1.880193 -0.174102,0.194422 -0.719359,2.33818 -1.211676,4.76389 -0.492316,2.425717 -1.542859,6.741513 -2.334537,9.59067 -0.791678,2.849149 -1.43941,5.3839 -1.43941,5.632771 0,0.324857 0.326558,0.616852 1.157726,1.035198 0.636746,0.320482 1.252481,0.557502 1.36829,0.526714 0.115818,-0.03075 0.342361,-0.576179 0.503443,-1.211968 z m -5.825625,-4.7838 c 1.370016,-3.851467 3.415143,-12.021622 3.1829,-12.715519 -0.128445,-0.38375 -3.06659,2.476216 -4.244069,4.131134 -1.977808,2.779771 -2.796399,5.14648 -2.306508,6.668561 0.358604,1.114161 2.178638,3.847517 2.494003,3.745526 0.13848,-0.04476 0.531631,-0.868148 0.873674,-1.829702 z M 65.97174,86.37693 c -0.573829,-0.28641 -0.810065,-0.582413 -0.96483,-1.208925 -0.296703,-1.20114 0.20469,-2.118929 1.555803,-2.847865 1.480358,-0.798671 6.834936,-2.416175 7.470458,-2.256676 0.689404,0.173035 1.39051,0.962355 1.451436,1.634065 0.157999,1.742047 -0.270874,2.178022 -3.035668,3.085851 -1.190823,0.391009 -2.71092,0.934942 -3.377988,1.208733 -1.836236,0.753673 -2.255808,0.805764 -3.099211,0.384817 z m 1.759125,-14.144778 c -1.022313,-1.022322 -0.695356,-2.772971 0.612993,-3.28219 0.904662,-0.352103 12.667796,-2.909324 13.382788,-2.909324 0.379524,0 0.852562,0.243153 1.253998,0.644598 0.866357,0.866356 0.880875,1.959213 0.03817,2.872194 -0.568903,0.616335 -0.991251,0.739362 -6.82516,1.988151 -3.420302,0.732136 -6.578606,1.33116 -7.018456,1.33116 -0.589882,0 -0.968872,-0.169134 -1.444328,-0.644589 z M 66.922767,59.97916 c -0.431357,-0.187503 -0.859913,-0.615026 -1.080764,-1.078155 -0.51171,-1.073063 -0.129794,-1.953679 1.102151,-2.541327 0.897086,-0.427922 5.948069,-1.408146 13.15277,-2.552511 2.00122,-0.317865 4.943999,-0.822358 6.539525,-1.121104 3.135292,-0.587039 3.712454,-0.536789 4.353943,0.379075 0.652908,0.932158 0.379841,2.565697 -0.508352,3.041043 -0.225634,0.12076 -3.870203,0.822975 -8.099045,1.560479 -4.228841,0.737511 -9.177308,1.632922 -10.996592,1.989801 -3.804936,0.746405 -3.533945,0.726811 -4.463636,0.322699 z M 58.610999,49.646711 c -1.204333,-1.204333 -0.494125,-3.256377 1.228619,-3.549922 0.407729,-0.06951 4.859529,-0.833059 9.892892,-1.696849 11.130363,-1.910131 11.375984,-1.93631 12.183706,-1.298872 0.489533,0.386334 0.606425,0.657325 0.606425,1.405855 0,1.267334 -0.444259,1.814234 -1.705542,2.099577 -2.287196,0.517437 -18.996372,3.402699 -20.276558,3.501264 -1.241505,0.09558 -1.414164,0.05434 -1.929542,-0.461053 z"
       style="fill:#ffcc00;fill-opacity:1;stroke-width:0.220519"
       sodipodi:nodetypes="ssscsssssssssssscsssssssssssscsssssscccssssssssssssssssssssssssssssssssssssssssssssssssssssssssssssssssssssss" />
  </g>
</svg>
