<?xml version="1.0" encoding="UTF-8" standalone="no"?>
<svg
   xmlns:dc="http://purl.org/dc/elements/1.1/"
   xmlns:cc="http://creativecommons.org/ns#"
   xmlns:rdf="http://www.w3.org/1999/02/22-rdf-syntax-ns#"
   xmlns:svg="http://www.w3.org/2000/svg"
   xmlns="http://www.w3.org/2000/svg"
   xmlns:sodipodi="http://sodipodi.sourceforge.net/DTD/sodipodi-0.dtd"
   xmlns:inkscape="http://www.inkscape.org/namespaces/inkscape"
   width="97.47789mm"
   height="109.07253mm"
   viewBox="0 0 97.47789 109.07253"
   version="1.1"
   id="svg855"
   inkscape:version="1.0 (4035a4fb49, 2020-05-01)"
   sodipodi:docname="Teamwork2.svg">
  <defs
     id="defs849" />
  <sodipodi:namedview
     showborder="false"
     fit-margin-bottom="0"
     fit-margin-right="0"
     fit-margin-left="0"
     fit-margin-top="0"
     id="base"
     pagecolor="#ffffff"
     bordercolor="#666666"
     borderopacity="1.0"
     inkscape:pageopacity="0.0"
     inkscape:pageshadow="2"
     inkscape:zoom="0.49497475"
     inkscape:cx="174.48922"
     inkscape:cy="604.53494"
     inkscape:document-units="mm"
     inkscape:current-layer="layer1"
     inkscape:document-rotation="0"
     showgrid="false"
     inkscape:window-width="1718"
     inkscape:window-height="1360"
     inkscape:window-x="1160"
     inkscape:window-y="0"
     inkscape:window-maximized="0" />
  <metadata
     id="metadata852">
    <rdf:RDF>
      <cc:Work
         rdf:about="">
        <dc:format>image/svg+xml</dc:format>
        <dc:type
           rdf:resource="http://purl.org/dc/dcmitype/StillImage" />
        <dc:title></dc:title>
      </cc:Work>
    </rdf:RDF>
  </metadata>
  <g
     transform="translate(-1.0896763,-1.5131879)"
     inkscape:label="Ebene 1"
     inkscape:groupmode="layer"
     id="layer1">
    <path
       id="path1418"
       style="fill:#ffffff;fill-opacity:1;stroke:#000000;stroke-width:2;stroke-miterlimit:4;stroke-dasharray:none;stroke-dashoffset:0;stroke-opacity:1"
       d="M 49.828881,2.5131879 C 39.804514,2.5132729 35.906061,12.156423 28.643612,19.066183 15.495487,31.575791 2.0897003,43.698661 2.0896773,61.847038 2.0898623,88.212508 23.463409,109.58583 49.828881,109.58572 76.194156,109.58554 97.567386,88.212308 97.567566,61.847038 97.567546,43.698661 84.161806,31.575738 71.013636,19.066183 63.751296,12.156584 59.853056,2.5135109 49.828881,2.5131879 Z m -0.08371,7.385595 a 9.4483776,9.4483784 0 0 1 0.08371,0 9.4483776,9.4483784 0 0 1 9.448515,9.4480041 9.4483776,9.4483784 0 0 1 -9.448515,9.448517 9.4483776,9.4483784 0 0 1 -9.448517,-9.448517 9.4483776,9.4483784 0 0 1 9.364803,-9.4480041 z" />
    <path
       d="M 49.82888,2.5131879 C 39.804515,2.5132729 35.906062,12.156422 28.643612,19.066183 15.495487,31.575792 2.0896993,43.698662 2.0896763,61.847028 2.0898613,88.212508 23.463408,109.58583 49.82888,109.58572 76.194146,109.58554 97.567376,88.212308 97.567566,61.847028 97.567536,43.698662 84.161806,31.575739 71.013626,19.066183 63.751296,12.156584 59.853056,2.5135109 49.82888,2.5131879 Z m -0.08371,7.385595 a 9.4483777,9.4483785 0 0 1 0.08371,0 9.4483777,9.4483785 0 0 1 9.448516,9.4480041 9.4483777,9.4483785 0 0 1 -9.448516,9.448517 9.4483777,9.4483785 0 0 1 -9.448516,-9.448517 9.4483777,9.4483785 0 0 1 9.364803,-9.4480041 z"
       style="fill:none;stroke:#000000;stroke-width:2;stroke-miterlimit:4;stroke-dasharray:none;stroke-dashoffset:0;stroke-opacity:1"
       id="path1418-6" />
    <path
       style="fill:#000000;stroke-width:0.107138"
       d="m 47.742518,105.0412 c -0.946504,-0.053 -2.655169,-0.24671 -3.696268,-0.41918 -1.141685,-0.18912 -4.824656,-1.19975 -6.267582,-1.71987 -2.439295,-0.87925 -7.215007,-3.622753 -9.585873,-5.506786 -1.176368,-0.934818 -3.370102,-3.087952 -3.443301,-3.37956 -0.121727,-0.485011 0.05294,-0.671373 1.164391,-1.242278 1.361083,-0.699146 2.473623,-1.533357 3.531595,-2.648107 1.146952,-1.20851 1.148728,-1.208291 2.754661,0.337235 3.747325,3.606386 9.04654,6.117096 14.538067,6.887964 2.410336,0.338354 6.370804,0.163317 8.71826,-0.385308 2.837271,-0.663108 6.407364,-2.260886 8.678187,-3.883901 1.078516,-0.77084 2.911604,-2.360489 3.779303,-3.277388 0.865551,-0.914647 0.96264,-0.900462 2.169098,0.316896 1.181585,1.192272 2.046223,1.845617 3.421404,2.585338 0.581562,0.312826 1.10487,0.645684 1.162903,0.739685 0.281495,0.455925 -0.461728,1.40898 -2.497345,3.202389 -2.173548,1.914939 -3.810629,3.027257 -6.849024,4.653601 -2.168888,1.16093 -3.702002,1.74228 -6.811094,2.58276 -3.744018,1.01211 -7.033209,1.3654 -10.767382,1.15651 z M 19.511611,91.248502 c -2.211681,-0.433424 -4.141073,-1.54901 -5.362416,-3.100579 -1.398085,-1.776095 -1.895217,-2.979944 -2.100629,-5.086865 -0.397368,-4.07583 1.524006,-7.509201 5.252175,-9.385285 1.189332,-0.598498 2.189533,-0.820684 3.710807,-0.824341 1.717569,-0.0041 2.608483,0.196274 4.081602,0.918126 0.952391,0.46668 1.363206,0.745399 2.047431,1.389074 2.201042,2.070577 3.335858,4.922327 3.097268,7.783279 -0.270044,3.238057 -2.392584,6.307739 -5.260717,7.608213 -1.63495,0.741324 -3.821007,1.020655 -5.465521,0.698378 z m 57.265345,-0.0041 c -3.593308,-0.774841 -6.345084,-3.361406 -7.300046,-6.861782 -0.304625,-1.116598 -0.336577,-3.572731 -0.06098,-4.685148 0.676419,-2.729948 2.927714,-5.237126 5.646779,-6.288596 1.078362,-0.417007 1.963965,-0.564394 3.374854,-0.561666 1.43835,0.0029 2.482943,0.221624 3.655428,0.7658 1.737943,0.806616 2.939394,1.800767 3.885325,3.214942 1.202305,1.797468 1.681244,3.588218 1.590716,5.947596 -0.05894,1.535852 -0.259564,2.352191 -0.882085,3.589181 -1.12388,2.233202 -3.261788,3.975335 -5.798054,4.724693 -0.969525,0.286458 -3.125406,0.367705 -4.111972,0.154972 z m -28.552319,-2.48624 c -2.247643,-0.269591 -4.091928,-0.808859 -5.999737,-1.754327 -1.769633,-0.876988 -3.178628,-1.85919 -4.382692,-3.055152 -3.339257,-3.316775 -5.097346,-7.711708 -5.097973,-12.744087 -4.05e-4,-2.995857 0.459777,-4.763801 1.951746,-7.498792 1.547136,-2.83612 4.082751,-5.424395 6.759756,-6.900115 2.396797,-1.321255 5.381439,-2.059515 8.322405,-2.058572 3.51387,0.0011 6.740044,0.967024 9.642428,2.886882 1.115678,0.737991 3.212636,2.752829 4.144018,3.981733 0.781721,1.031439 2.052734,3.493115 2.445697,4.736799 0.89318,2.826805 1.044431,6.179369 0.412236,9.137592 -0.66698,3.121012 -2.198607,5.878369 -4.583089,8.250818 -2.951835,2.936942 -6.260748,4.524119 -10.369642,4.973978 -0.983065,0.107633 -2.535852,0.128323 -3.245153,0.04325 z m 4.446232,-2.913119 c 2.072964,-0.47728 3.901613,-1.304419 5.410481,-2.447284 l 0.964238,-0.730347 -0.012,-1.124471 c -0.01176,-1.097621 -0.31721,-2.943019 -0.913217,-5.517134 -0.255962,-1.105511 -0.80585,-3.052475 -0.884258,-3.130883 -0.0291,-0.02907 -0.332881,0.115746 -0.675159,0.321788 -0.862963,0.519478 -1.787359,0.969957 -2.577605,1.25611 l -0.669611,0.242473 v 0.517534 c 0,1.309433 -0.715103,3.832946 -1.402931,4.950822 -1.319635,2.144667 -2.85729,3.589261 -5.033088,4.72847 -1.111981,0.582215 -1.112082,0.582304 -0.793257,0.703638 0.329753,0.125488 1.362826,0.375056 1.925942,0.465255 0.7644,0.122447 3.763285,-0.02939 4.660498,-0.235971 z m -7.894378,-2.589624 c 1.757429,-0.78238 2.276363,-1.130359 3.511721,-2.354822 0.995184,-0.986406 1.196698,-1.250303 1.636218,-2.142765 0.496049,-1.007227 0.812498,-2.140087 0.816092,-2.921558 0.0018,-0.363944 -0.0219,-0.398399 -0.2392,-0.349015 -1.032101,0.234601 -1.54509,0.293754 -3.343064,0.385488 -3.223637,0.164467 -5.366679,-0.07503 -8.361782,-0.934469 -0.707111,-0.202907 -1.761716,-0.58255 -2.343574,-0.843659 l -1.057914,-0.474742 0.06834,0.427593 c 0.115984,0.725367 0.905383,3.003936 1.357329,3.917924 1.117689,2.260323 2.999787,4.407417 4.980667,5.68194 l 0.703103,0.452378 0.556612,-0.164209 c 0.306139,-0.09031 1.078076,-0.39635 1.715413,-0.680083 z m 17.179636,-3.935318 c 0.59544,-0.892923 1.315583,-2.483212 1.648921,-3.641308 0.859901,-2.987525 0.668096,-7.274935 -0.421869,-9.430487 l -0.295941,-0.585242 -0.193783,0.520863 c -0.370161,0.994943 -0.971572,2.027662 -1.894344,3.252886 -0.510368,0.677649 -1.071065,1.367488 -1.245989,1.532978 l -0.318046,0.300889 0.468325,1.466888 c 0.493326,1.54522 1.571562,5.717975 1.700977,6.582738 0.04186,0.279901 0.106839,0.508813 0.144341,0.5087 0.03748,-1.05e-4 0.220839,-0.229122 0.407408,-0.508905 z M 47.054292,73.503298 c 1.263038,-0.120766 3.366718,-0.499827 3.505859,-0.631713 0.120476,-0.114194 -0.218124,-1.409311 -0.617885,-2.363391 -1.113351,-2.65714 -3.958413,-5.654663 -6.699549,-7.058581 -1.101604,-0.5642 -3.639756,-1.61961 -3.895007,-1.61961 -0.154026,0 -1.310155,1.387423 -1.976618,2.372063 -0.912888,1.348697 -1.726975,3.523362 -1.99136,5.319482 -0.08926,0.6064 -0.139588,1.161718 -0.111827,1.234035 0.192904,0.502706 4.297163,2.063983 6.528449,2.483448 1.868516,0.351271 3.49374,0.432953 5.257943,0.264267 z m 7.668746,-1.993415 c 0.414638,-0.217884 0.97086,-0.592665 1.236041,-0.832845 l 0.482153,-0.43669 -0.656349,-1.793765 C 55.057931,66.459828 53.285973,62.548529 52.399033,60.972897 52.08392,60.4131 51.449678,59.400645 50.989616,58.722995 l -0.836492,-1.232088 -1.607074,0.0046 c -1.319405,0.0038 -1.768212,0.04782 -2.507326,0.246038 -1.356659,0.363833 -2.461968,0.82123 -3.505021,1.450444 -0.895025,0.539913 -1.193171,0.816563 -0.880207,0.81674 0.290095,2.13e-4 3.012314,1.402768 4.02525,2.073974 1.934509,1.281882 3.746717,2.971817 4.89081,4.560815 1.062971,1.476336 1.719996,2.917292 2.481293,5.441815 0.05117,0.169682 0.639435,-0.03276 1.672189,-0.575452 z m 4.355424,-3.846222 c 1.06314,-1.592646 1.618746,-2.882322 1.840938,-4.273201 l 0.115898,-0.725513 -0.40454,-0.497826 C 59.50528,60.782128 58.080013,59.672802 56.293,58.790922 c -1.107549,-0.54657 -2.814851,-1.125193 -2.942718,-0.997324 -0.02902,0.02902 0.248959,0.55131 0.6177,1.16068 0.36874,0.60937 1.05261,1.903445 1.519709,2.875725 0.81819,1.703057 2.754364,6.368473 2.754364,6.636914 0,0.289902 0.297242,0.0045 0.836407,-0.803256 z m -35.817013,2.986838 c -0.722918,-0.215855 -3.204051,-0.242907 -4.10459,-0.04474 -0.636298,0.140011 -0.693147,0.136182 -0.964239,-0.06497 -0.467818,-0.347115 -0.585274,-0.875176 -0.519636,-2.336052 0.103427,-2.301551 0.98194,-5.997593 2.055253,-8.646693 0.892565,-2.202977 1.681238,-3.71952 2.876431,-5.531084 2.791627,-4.231297 6.265797,-7.645719 10.241945,-10.06578 1.528182,-0.930133 4.437258,-2.380277 4.774959,-2.380277 0.461899,0 0.740171,0.40225 1.002442,1.449092 0.425744,1.699328 1.121022,3.211358 2.040318,4.437086 0.688006,0.917334 0.50789,1.195496 -1.150267,1.776439 -3.898694,1.365929 -7.48056,3.973205 -10.143619,7.383635 -1.989262,2.547532 -3.600371,6.045725 -4.228556,9.18145 -0.125541,0.626683 -0.289648,1.923065 -0.364665,2.880847 -0.125506,1.602242 -0.156089,1.757356 -0.382627,1.940795 -0.2876,0.232883 -0.413531,0.235136 -1.133149,0.02027 z m 56.997499,0.0053 c -0.681813,-0.187441 -2.913734,-0.203002 -3.957658,-0.02759 -0.697148,0.117141 -0.820583,0.112022 -1.05854,-0.04389 -0.23042,-0.15098 -0.278457,-0.281537 -0.332221,-0.903032 -0.28832,-3.332844 -0.464808,-4.320743 -1.140127,-6.381947 -0.561881,-1.714974 -1.285932,-3.170778 -2.447582,-4.921205 -1.979528,-2.982848 -4.025876,-5.057787 -6.97389,-7.071322 -1.318888,-0.90082 -2.100408,-1.325298 -3.800733,-2.064331 -0.764569,-0.332316 -1.451594,-0.655223 -1.52672,-0.717574 -0.25948,-0.215349 -0.147564,-0.725555 0.305496,-1.392714 0.672182,-0.989827 1.224243,-2.259818 1.69646,-3.902596 0.436078,-1.51707 0.578044,-1.755798 1.044153,-1.755798 0.30679,0 2.404408,1.043144 4.022713,2.000488 2.90565,1.718915 4.390972,2.872817 6.619603,5.142571 3.590829,3.65709 6.405944,8.129849 7.743085,12.302522 0.951425,2.969017 1.552185,6.536456 1.448049,8.598763 -0.03619,0.716044 -0.0713,0.825563 -0.338286,1.05524 -0.3314,0.28506 -0.522688,0.297152 -1.303802,0.08242 z M 48.010362,49.461445 c -2.893539,-0.678261 -5.247507,-2.538226 -6.383676,-5.043995 -0.606611,-1.337853 -0.784139,-2.206861 -0.787396,-3.854398 -0.0033,-1.632163 0.178248,-2.571098 0.744087,-3.849945 1.02651,-2.320011 3.188649,-4.172602 5.842337,-5.005919 0.700674,-0.220027 1.009731,-0.250548 2.513135,-0.248169 1.653167,0.0024 1.750452,0.01518 2.73202,0.352686 1.419415,0.488068 2.554137,1.191302 3.583947,2.221107 3.310816,3.310815 3.644171,8.374877 0.799786,12.149653 -1.060756,1.407739 -2.444691,2.359984 -4.383733,3.016336 -0.919957,0.311399 -1.162015,0.347829 -2.517745,0.378923 -1.024531,0.0235 -1.703673,-0.01335 -2.142762,-0.116279 z"
       id="path1406" />
  </g>
</svg>
