<?xml version="1.0" encoding="UTF-8" standalone="no"?>
<svg
   xmlns:dc="http://purl.org/dc/elements/1.1/"
   xmlns:cc="http://creativecommons.org/ns#"
   xmlns:rdf="http://www.w3.org/1999/02/22-rdf-syntax-ns#"
   xmlns:svg="http://www.w3.org/2000/svg"
   xmlns="http://www.w3.org/2000/svg"
   xmlns:sodipodi="http://sodipodi.sourceforge.net/DTD/sodipodi-0.dtd"
   xmlns:inkscape="http://www.inkscape.org/namespaces/inkscape"
   sodipodi:docname="Wurf_profi.svg"
   inkscape:version="1.0 (4035a4fb49, 2020-05-01)"
   id="svg855"
   version="1.1"
   viewBox="0 0 97.47789 109.07253"
   height="109.07253mm"
   width="97.47789mm">
  <defs
     id="defs849" />
  <sodipodi:namedview
     inkscape:window-maximized="0"
     inkscape:window-y="0"
     inkscape:window-x="1160"
     inkscape:window-height="1360"
     inkscape:window-width="1718"
     showgrid="false"
     inkscape:document-rotation="0"
     inkscape:current-layer="layer1"
     inkscape:document-units="mm"
     inkscape:cy="434.20718"
     inkscape:cx="670.90223"
     inkscape:zoom="0.49497475"
     inkscape:pageshadow="2"
     inkscape:pageopacity="0.0"
     borderopacity="1.0"
     bordercolor="#666666"
     pagecolor="#ffffff"
     id="base"
     fit-margin-top="0"
     fit-margin-left="0"
     fit-margin-right="0"
     fit-margin-bottom="0"
     showborder="false" />
  <metadata
     id="metadata852">
    <rdf:RDF>
      <cc:Work
         rdf:about="">
        <dc:format>image/svg+xml</dc:format>
        <dc:type
           rdf:resource="http://purl.org/dc/dcmitype/StillImage" />
        <dc:title></dc:title>
      </cc:Work>
    </rdf:RDF>
  </metadata>
  <g
     id="layer1"
     inkscape:groupmode="layer"
     inkscape:label="Ebene 1"
     transform="translate(-1.0896763,-1.5131879)">
    <path
       d="M 49.828881,2.5131879 C 39.804514,2.5132729 35.906061,12.156423 28.643612,19.066183 15.495487,31.575791 2.0897003,43.698661 2.0896773,61.847038 2.0898623,88.212508 23.463409,109.58583 49.828881,109.58572 76.194156,109.58554 97.567386,88.212308 97.567566,61.847038 97.567546,43.698661 84.161806,31.575738 71.013636,19.066183 63.751296,12.156584 59.853056,2.5135109 49.828881,2.5131879 Z m -0.08371,7.385595 a 9.4483776,9.4483784 0 0 1 0.08371,0 9.4483776,9.4483784 0 0 1 9.448515,9.4480041 9.4483776,9.4483784 0 0 1 -9.448515,9.448517 9.4483776,9.4483784 0 0 1 -9.448517,-9.448517 9.4483776,9.4483784 0 0 1 9.364803,-9.4480041 z"
       style="fill:#323232;fill-opacity:1;stroke:#000000;stroke-width:2;stroke-miterlimit:4;stroke-dasharray:none;stroke-dashoffset:0;stroke-opacity:1"
       id="path1418" />
    <path
       id="path1418-6"
       style="fill:none;stroke:#000000;stroke-width:2;stroke-miterlimit:4;stroke-dasharray:none;stroke-dashoffset:0;stroke-opacity:1"
       d="M 49.82888,2.5131879 C 39.804515,2.5132729 35.906062,12.156422 28.643612,19.066183 15.495487,31.575792 2.0896993,43.698662 2.0896763,61.847028 2.0898613,88.212508 23.463408,109.58583 49.82888,109.58572 76.194146,109.58554 97.567376,88.212308 97.567566,61.847028 97.567536,43.698662 84.161806,31.575739 71.013626,19.066183 63.751296,12.156584 59.853056,2.5135109 49.82888,2.5131879 Z m -0.08371,7.385595 a 9.4483777,9.4483785 0 0 1 0.08371,0 9.4483777,9.4483785 0 0 1 9.448516,9.4480041 9.4483777,9.4483785 0 0 1 -9.448516,9.448517 9.4483777,9.4483785 0 0 1 -9.448516,-9.448517 9.4483777,9.4483785 0 0 1 9.364803,-9.4480041 z" />
    <path
       id="path2579"
       d="m 42.481171,102.54668 c -0.641501,-0.48562 -1.874413,-1.5942 -2.739809,-2.4635 -1.838775,-1.847068 -1.62306,-1.87919 -3.379262,0.50321 -1.109755,1.50545 -1.638943,1.99994 -2.325318,2.17286 -0.554457,0.13969 -1.555013,-0.27387 -1.808492,-0.7475 -0.107345,-0.20058 -0.196634,-1.24384 -0.198421,-2.318374 -0.0051,-3.084837 -0.335335,-9.155305 -0.627031,-11.527263 -0.4849,-3.943003 -1.611706,-9.346585 -3.090984,-14.82275 l -0.832425,-3.081571 -1.561618,0.0108 c -1.9196,0.01328 -2.705544,-0.373173 -3.182317,-1.564747 -0.545564,-1.363498 0.138232,-2.827609 1.496833,-3.204951 0.400444,-0.111219 3.421081,-0.185311 7.579648,-0.185916 l 6.913884,-0.0011 -1.270993,-1.490226 c -2.490335,-2.9199 -3.995602,-6.875274 -4.038613,-10.612221 -0.01736,-1.507923 0.08308,-2.340188 0.490029,-4.060697 0.990148,-4.186172 2.195884,-6.47582 4.810279,-9.134523 1.909743,-1.942038 3.307843,-2.954408 5.487857,-3.973692 2.547961,-1.191322 4.115148,-1.513203 7.33712,-1.506957 3.33834,0.0065 4.687565,0.309379 7.496294,1.682949 6.167495,3.016124 10.205571,8.927033 10.514484,15.391024 0.06035,1.262366 0.01283,2.70001 -0.11901,3.601621 -0.432784,2.959829 -1.845569,6.32956 -3.644413,8.692516 -0.477029,0.626631 -0.870284,1.200294 -0.873902,1.274805 -0.0034,0.07451 2.150098,0.135476 4.786025,0.135476 5.160683,0 5.552825,0.05892 6.382453,0.958957 0.575934,0.624817 0.692855,1.81596 0.259881,2.647568 -0.481208,0.92425 -1.16529,1.232467 -3.051268,1.374764 l -1.6415,0.123852 -1.108884,4.446979 c -0.609885,2.445838 -1.310031,5.463046 -1.555881,6.704901 -0.766656,3.872656 -1.393335,10.247313 -1.522244,15.484521 -0.109288,4.439865 -0.139655,4.759865 -0.484417,5.104425 -1.067245,1.06664 -2.226691,0.7111 -3.466826,-1.06309 -0.937572,-1.341329 -1.843677,-2.365673 -2.092614,-2.365673 -0.09153,0 -1.076291,0.874694 -2.18835,1.943763 -1.112058,1.06907 -2.391907,2.14003 -2.844113,2.37993 l -0.822187,0.43617 -0.792489,-0.46738 c -0.435862,-0.25706 -1.564688,-1.19302 -2.5085,-2.07992 -1.552345,-1.458729 -2.291767,-2.031925 -2.621181,-2.031925 -0.06383,0 -0.995049,0.847297 -2.069381,1.882895 -1.803855,1.7388 -3.051787,2.63294 -3.674766,2.63294 -0.138167,0 -0.776077,-0.39734 -1.417578,-0.88297 z m 3.265358,-4.485042 c 0.802894,-0.866092 1.459804,-1.623585 1.459804,-1.683329 0,-0.243837 -3.226232,-3.244775 -3.488372,-3.244775 -0.155918,0 -0.953814,0.636142 -1.773099,1.413653 l -1.489618,1.413652 1.779913,1.837752 c 0.97895,1.010765 1.841028,1.837751 1.915737,1.837751 0.07471,0 0.792742,-0.708618 1.595635,-1.574704 z m 11.594701,-0.09615 c 0.880634,-0.918975 1.602306,-1.806327 1.603719,-1.971891 0.0027,-0.324628 -2.639867,-2.860061 -2.980989,-2.860061 -0.216508,0 -3.202454,2.942055 -3.311114,3.262444 -0.06629,0.195425 2.659699,3.194766 2.929773,3.223576 0.0866,0.0092 0.877978,-0.735094 1.758611,-1.654068 z M 35.641771,96.268789 c 0.0033,-0.169128 -0.37561,-0.425752 -0.628621,-0.425752 -0.143208,0 -0.285978,1.093305 -0.167751,1.2846 0.139192,0.225219 0.788915,-0.475473 0.796372,-0.858848 z m 28.905383,0.126813 c 0,-0.478545 -0.270797,-0.608267 -0.554975,-0.265854 -0.193712,0.233412 -0.189411,0.31135 0.02471,0.446827 0.394955,0.249919 0.530288,0.203734 0.530288,-0.180973 z m -13.913988,-2.71646 c 0.276183,-0.196655 1.078244,-0.996613 1.782363,-1.777666 l 1.28021,-1.420111 -1.533925,-1.643862 c -1.574472,-1.68731 -1.975024,-1.955847 -2.614559,-1.75287 -0.365448,0.115992 -3.244085,3.278971 -3.244085,3.564528 0,0.327359 3.139241,3.387543 3.475059,3.387543 0.194033,0 0.57876,-0.160901 0.854937,-0.357562 z m -9.567825,-2.904745 c 0.115678,-0.20882 -0.101915,-0.571537 -0.839801,-1.399909 -0.547765,-0.61493 -1.078661,-1.11806 -1.17977,-1.11806 -0.335012,0 -3.399982,2.773979 -3.399982,3.077184 0,0.163672 0.534316,0.810669 1.187375,1.437772 l 1.187375,1.140173 1.44434,-1.427655 c 0.794388,-0.785212 1.514598,-1.554482 1.600463,-1.709505 z m 21.837992,1.892997 c 0.506707,-0.554422 0.921289,-1.156449 0.921289,-1.337838 0,-0.311076 -2.239164,-2.544103 -2.912377,-2.904396 -0.251067,-0.134364 -0.507875,0.05291 -1.318094,0.961153 -0.553452,0.620425 -1.006641,1.262903 -1.007092,1.427736 -0.0014,0.371196 2.687568,2.851691 3.096996,2.857303 0.163891,0.002 0.712564,-0.44953 1.219278,-1.003958 z M 45.41037,86.651754 c 0.813933,-0.882573 1.634147,-1.848334 1.822698,-2.146138 l 0.342829,-0.541457 -0.725256,-0.917514 c -0.853967,-1.080347 -1.316926,-1.377291 -1.76961,-1.135025 -0.420017,0.224789 -3.654967,3.571915 -3.654967,3.781712 0,0.214412 2.155266,2.563096 2.352023,2.563096 0.08383,0 0.818357,-0.722102 1.632283,-1.604674 z m 11.918107,0.475719 c 0.588817,-0.620932 1.072052,-1.254192 1.073855,-1.407249 0.0048,-0.386495 -3.6013,-3.966604 -3.995128,-3.966604 -0.282641,0 -2.143127,2.060902 -2.143127,2.373993 0,0.0667 0.772574,0.975701 1.71683,2.01996 1.469771,1.625429 1.871163,2.003827 2.221892,2.094594 0.03031,0.0079 0.536862,-0.49377 1.125678,-1.114694 z M 35.683331,86.503749 c 0.376746,-0.367878 0.684989,-0.756333 0.684989,-0.863224 0,-0.106892 -0.528351,-0.718006 -1.174116,-1.358033 -1.28802,-1.276571 -1.333598,-1.251508 -0.992713,0.545963 0.265024,1.397466 0.53801,2.344172 0.67595,2.344172 0.0665,0 0.429144,-0.300993 0.80589,-0.668878 z m 29.28685,-1.092294 c 0.341252,-1.968723 0.359139,-2.212764 0.162178,-2.212764 -0.209435,0 -2.030044,2.447268 -2.031901,2.731282 -0.002,0.272667 1.057859,1.22999 1.370096,1.2378 0.106892,0.0027 0.331722,-0.787676 0.499627,-1.756318 z M 41.063252,81.403909 c 0.854608,-0.887781 1.666917,-1.825442 1.805124,-2.083697 0.24368,-0.455317 0.21347,-0.507662 -0.99709,-1.727569 -0.686615,-0.691915 -1.333304,-1.258026 -1.43709,-1.258026 -0.103792,0 -1.029799,0.843963 -2.057802,1.875476 -1.371659,1.376341 -1.827497,1.943707 -1.712789,2.131841 0.601488,0.98657 2.168354,2.676126 2.4818,2.676126 0.22186,0 0.97084,-0.63038 1.917847,-1.614151 z m 21.029336,0.257484 1.219026,-1.356666 -0.483222,-0.585144 c -1.206478,-1.460957 -3.03293,-3.204333 -3.357033,-3.204333 -0.365304,0 -1.691392,1.21486 -2.239956,2.052079 -0.310121,0.473301 -0.305806,0.48799 0.429383,1.46174 1.009536,1.337121 2.643526,2.988991 2.956637,2.988991 0.140878,0 0.804696,-0.610499 1.475165,-1.356667 z M 50.984133,80.233943 51.949771,79.25616 51.571516,78.724946 C 51.363474,78.432778 50.89818,77.968665 50.537525,77.693583 l -0.655729,-0.500151 -0.976465,0.964332 c -0.537054,0.530382 -0.976459,1.022308 -0.976459,1.093166 0,0.143417 1.840803,1.95074 1.993136,1.956898 0.05305,0.002 0.531025,-0.436108 1.062125,-0.973885 z M 35.904667,76.027368 c 1.363389,-1.460516 2.598567,-2.88692 2.744845,-3.169787 0.162601,-0.314439 0.244853,-0.879454 0.21166,-1.45393 l -0.05428,-0.939625 -3.856025,-0.09032 c -2.120815,-0.04967 -3.879655,-0.04967 -3.908536,0 -0.08201,0.14105 1.493115,6.682166 1.816009,7.541451 0.158661,0.422231 0.351245,0.767693 0.427966,0.767693 0.07672,0 1.254989,-1.194969 2.618377,-2.655485 z m 30.540119,1.687519 c 0.213654,-0.511338 1.895672,-6.941919 1.895672,-7.247392 0,-0.05579 -1.605377,-0.07938 -3.567512,-0.05245 l -3.567512,0.04898 -0.05325,1.211076 -0.05325,1.211075 1.917485,2.040329 c 1.054615,1.12218 2.135269,2.343411 2.401458,2.713847 0.266188,0.370436 0.549089,0.675256 0.628673,0.677376 0.07958,0.0021 0.258767,-0.269159 0.398183,-0.602842 z m -19.186895,-2.515527 1.045044,-0.975486 -0.05155,-1.970241 -0.05154,-1.970241 h -2.98045 -2.980457 l -0.05291,1.518773 c -0.0523,1.50027 -0.04567,1.526406 0.5419,2.145291 0.327155,0.344585 1.114551,1.059907 1.749778,1.589602 1.320483,1.101124 1.226597,1.112527 2.780232,-0.337698 z m 9.132113,-0.421901 1.668754,-1.557156 -0.05236,-1.378139 -0.05236,-1.378138 h -3.251412 -3.251403 l -0.05216,1.689054 c -0.03639,1.178598 0.01816,1.774816 0.180638,1.972844 0.484655,0.590789 2.573282,2.208693 2.851295,2.208693 0.159651,0 1.041214,-0.700721 1.959028,-1.557158 z m -3.364959,-7.753976 c 1.09478,-0.09853 1.26588,-0.169856 1.761514,-0.734353 0.301928,-0.343876 0.745402,-1.012889 0.985498,-1.486696 0.448089,-0.884257 1.303299,-3.592483 1.171686,-3.710404 -0.04042,-0.03623 -0.540904,-0.02537 -1.112154,0.02412 -0.826078,0.07157 -1.038647,0.153435 -1.038647,0.400031 0,1.078827 -2.146555,3.995749 -3.695452,5.021696 -0.909225,0.602247 -0.890178,0.799475 0.0654,0.677586 0.357269,-0.04557 1.195233,-0.131963 1.862138,-0.191982 z m 8.377221,-3.169026 0.872558,-0.885876 -0.489537,-0.966798 c -0.269247,-0.531738 -0.49078,-1.161889 -0.492302,-1.400333 -0.0041,-0.634215 -0.252616,-0.924863 -0.731871,-0.855765 -0.381737,0.05504 -0.443243,0.201424 -0.632763,1.50603 -0.11546,0.794788 -0.424024,2.076738 -0.6857,2.848781 -0.261669,0.772042 -0.475766,1.447718 -0.475766,1.501502 0,0.268985 1.871566,-0.972063 2.635381,-1.747541 z m -13.505591,0.730957 c 1.082798,-0.536547 1.858827,-1.089388 2.675354,-1.905915 0.632578,-0.632579 1.150147,-1.22066 1.150147,-1.306848 0,-0.08619 -1.036387,-0.207893 -2.303079,-0.270457 -2.487193,-0.122847 -4.587924,-0.529678 -6.728601,-1.303067 -1.643862,-0.5939 -3.670246,-1.587545 -4.482547,-2.198029 -0.329407,-0.247567 -0.645079,-0.403961 -0.701498,-0.347544 -0.173743,0.173746 0.802928,1.987086 1.725644,3.203927 1.294294,1.706851 3.823241,4.035064 5.175607,4.764782 0.773407,0.417327 1.704569,0.247361 3.488973,-0.636849 z m 17.41951,-6.129628 c 0.276054,-0.52842 0.46128,-1.001398 0.411612,-1.051061 -0.120068,-0.120075 -1.559922,0.883934 -1.666698,1.16219 -0.119181,0.310582 0.289093,1.00433 0.541532,0.920183 0.116409,-0.0388 0.437507,-0.502892 0.713554,-1.031312 z M 51.99184,57.731443 c 0.157583,-0.254972 -0.470244,-1.591618 -1.369741,-2.916182 -1.421954,-2.093923 -4.629542,-5.179033 -9.413942,-9.054493 l -1.933932,-1.56652 -0.375791,0.527754 c -1.020985,1.43384 -1.801151,4.458661 -1.805206,6.999028 l -0.0027,1.48796 0.767693,0.48676 c 3.15295,1.999146 6.735345,3.398281 10.07032,3.933052 1.848825,0.296461 3.910983,0.348558 4.062968,0.102641 z m 4.742912,-0.288373 c 0.377341,-0.076 0.406431,-0.177197 0.406431,-1.414031 0,-3.311645 -0.749076,-7.62235 -1.89809,-10.922926 -0.895776,-2.57316 -1.254157,-3.352614 -2.489862,-5.415308 l -1.12137,-1.871855 -0.993486,0.104809 c -1.582671,0.166965 -3.668799,0.767241 -5.094453,1.46591 -1.476954,0.72381 -3.388629,2.064466 -3.392677,2.379285 -0.0027,0.19534 2.898054,2.991951 7.641151,7.367289 2.876999,2.65393 4.216099,4.582199 4.906667,7.065448 0.164587,0.591847 0.33123,1.17628 0.370322,1.298736 0.06725,0.210685 0.38969,0.199579 1.665367,-0.05736 z m 4.561039,-2.202059 c 4.8e-5,-0.924884 0.631397,-4.714318 1.158244,-6.951899 0.6965,-2.958159 0.834687,-3.887328 0.650267,-4.372404 -0.269602,-0.709104 -2.663816,-3.107554 -3.957551,-3.964552 -1.184187,-0.784431 -3.414626,-1.827442 -3.571799,-1.670265 -0.04513,0.04511 0.279405,0.801732 0.721146,1.681389 1.954986,3.893057 3.508034,9.815238 3.839688,14.641736 l 0.126649,1.84308 0.516661,-0.267175 c 0.428134,-0.221395 0.516661,-0.38244 0.516695,-0.93991 z m 4.183992,-1.500619 0.737606,-0.376296 -0.129947,-2.017098 c -0.07468,-1.159219 -0.249715,-2.285981 -0.411551,-2.649315 L 65.394287,48.065466 65.255301,48.788 c -0.07645,0.397393 -0.230189,1.4541 -0.341655,2.348236 -0.111466,0.894136 -0.249913,1.930521 -0.307663,2.303078 -0.05776,0.372557 -0.05072,0.677376 0.01563,0.677376 0.06636,0 0.45252,-0.169333 0.858207,-0.376298 z"
       style="fill:#ffffff;stroke-width:0.180633;fill-opacity:1"
       sodipodi:nodetypes="sssssssscsssccssscsssccscsssscsssssssscssssssssssscsssscsssssssscscccsscsssssssssscsssssscsssscsssssscssssssssssssscssssssscssscssssssscsscsscscsccsssscccsscccssscccccccccssccccccccscsccssssssssssscscsssssssssssssssssssscsscsccssccsssscsscsssssssssssscssccsscsssscc" />
  </g>
</svg>
